G04 #@! TF.FileFunction,Legend,Top*
%FSLAX46Y46*%
G04 Gerber Fmt 4.6, Leading zero omitted, Abs format (unit mm)*
G04 Created by KiCad (PCBNEW 4.0.2+dfsg1-stable) date Qui 19 Out 2017 15:04:08 BRT*
%MOMM*%
G01*
G04 APERTURE LIST*
%ADD10C,0.100000*%
%ADD11C,0.150000*%
%ADD12C,0.120000*%
%ADD13C,0.203200*%
%ADD14C,0.152400*%
%ADD15C,0.254000*%
%ADD16C,0.050000*%
G04 APERTURE END LIST*
D10*
D11*
X110581440Y-98023680D02*
X110581440Y-96626680D01*
X110454440Y-98277680D02*
X110454440Y-96499680D01*
X110327440Y-98658680D02*
X110327440Y-96118680D01*
X110200440Y-95991680D02*
X110200440Y-98785680D01*
X110073440Y-98912680D02*
X110073440Y-95864680D01*
X109946440Y-95737680D02*
X109946440Y-99039680D01*
X109819440Y-99166680D02*
X109819440Y-95610680D01*
X110962440Y-100055680D02*
X106390440Y-100055680D01*
X106390440Y-100055680D02*
X105628440Y-99293680D01*
X105628440Y-99293680D02*
X105628440Y-95483680D01*
X105628440Y-95483680D02*
X106390440Y-94721680D01*
X106390440Y-94721680D02*
X110962440Y-94721680D01*
X110962440Y-94721680D02*
X110962440Y-100055680D01*
X106136440Y-97388680D02*
X106898440Y-97388680D01*
X106517440Y-97769680D02*
X106517440Y-97007680D01*
X110708440Y-97388680D02*
G75*
G03X110708440Y-97388680I-2413000J0D01*
G01*
X130032760Y-94437200D02*
X130032760Y-93040200D01*
X129905760Y-94691200D02*
X129905760Y-92913200D01*
X129778760Y-95072200D02*
X129778760Y-92532200D01*
X129651760Y-92405200D02*
X129651760Y-95199200D01*
X129524760Y-95326200D02*
X129524760Y-92278200D01*
X129397760Y-92151200D02*
X129397760Y-95453200D01*
X129270760Y-95580200D02*
X129270760Y-92024200D01*
X130413760Y-96469200D02*
X125841760Y-96469200D01*
X125841760Y-96469200D02*
X125079760Y-95707200D01*
X125079760Y-95707200D02*
X125079760Y-91897200D01*
X125079760Y-91897200D02*
X125841760Y-91135200D01*
X125841760Y-91135200D02*
X130413760Y-91135200D01*
X130413760Y-91135200D02*
X130413760Y-96469200D01*
X125587760Y-93802200D02*
X126349760Y-93802200D01*
X125968760Y-94183200D02*
X125968760Y-93421200D01*
X130159760Y-93802200D02*
G75*
G03X130159760Y-93802200I-2413000J0D01*
G01*
X82451700Y-83333700D02*
X84451700Y-83333700D01*
X84451700Y-81283700D02*
X82451700Y-81283700D01*
X82451700Y-78327360D02*
X84451700Y-78327360D01*
X84451700Y-76277360D02*
X82451700Y-76277360D01*
X130053080Y-86857840D02*
X130053080Y-85460840D01*
X129926080Y-87111840D02*
X129926080Y-85333840D01*
X129799080Y-87492840D02*
X129799080Y-84952840D01*
X129672080Y-84825840D02*
X129672080Y-87619840D01*
X129545080Y-87746840D02*
X129545080Y-84698840D01*
X129418080Y-84571840D02*
X129418080Y-87873840D01*
X129291080Y-88000840D02*
X129291080Y-84444840D01*
X130434080Y-88889840D02*
X125862080Y-88889840D01*
X125862080Y-88889840D02*
X125100080Y-88127840D01*
X125100080Y-88127840D02*
X125100080Y-84317840D01*
X125100080Y-84317840D02*
X125862080Y-83555840D01*
X125862080Y-83555840D02*
X130434080Y-83555840D01*
X130434080Y-83555840D02*
X130434080Y-88889840D01*
X125608080Y-86222840D02*
X126370080Y-86222840D01*
X125989080Y-86603840D02*
X125989080Y-85841840D01*
X130180080Y-86222840D02*
G75*
G03X130180080Y-86222840I-2413000J0D01*
G01*
X106258360Y-85628480D02*
X106258360Y-87025480D01*
X106385360Y-85374480D02*
X106385360Y-87152480D01*
X106512360Y-84993480D02*
X106512360Y-87533480D01*
X106639360Y-87660480D02*
X106639360Y-84866480D01*
X106766360Y-84739480D02*
X106766360Y-87787480D01*
X106893360Y-87914480D02*
X106893360Y-84612480D01*
X107020360Y-84485480D02*
X107020360Y-88041480D01*
X105877360Y-83596480D02*
X110449360Y-83596480D01*
X110449360Y-83596480D02*
X111211360Y-84358480D01*
X111211360Y-84358480D02*
X111211360Y-88168480D01*
X111211360Y-88168480D02*
X110449360Y-88930480D01*
X110449360Y-88930480D02*
X105877360Y-88930480D01*
X105877360Y-88930480D02*
X105877360Y-83596480D01*
X110703360Y-86263480D02*
X109941360Y-86263480D01*
X110322360Y-85882480D02*
X110322360Y-86644480D01*
X110957360Y-86263480D02*
G75*
G03X110957360Y-86263480I-2413000J0D01*
G01*
D12*
X87398300Y-90687000D02*
X88598300Y-90687000D01*
X88598300Y-92447000D02*
X87398300Y-92447000D01*
D13*
X127147700Y-99034600D02*
X126647700Y-99034600D01*
X128147700Y-99034600D02*
X128647700Y-99034600D01*
X128147700Y-99534600D02*
X128147700Y-98534600D01*
X128147700Y-99034600D02*
X127147700Y-99534600D01*
X127147700Y-99534600D02*
X127147700Y-98534600D01*
X127147700Y-98534600D02*
X128147700Y-99034600D01*
X129947700Y-100334600D02*
X125347700Y-100334600D01*
X125347700Y-100334600D02*
X125347700Y-97734600D01*
X125347700Y-97734600D02*
X129947700Y-97734600D01*
X129947700Y-97734600D02*
X129947700Y-100334600D01*
D14*
X68618100Y-67183000D02*
X62928500Y-67183000D01*
X62928500Y-101981000D02*
X65468500Y-101981000D01*
X65468500Y-101981000D02*
X66078100Y-101981000D01*
X66078100Y-101981000D02*
X68262500Y-101981000D01*
X65468500Y-101981000D02*
G75*
G02X66078100Y-101981000I304800J0D01*
G01*
D11*
X58087260Y-86875620D02*
X58087260Y-92473780D01*
X58585100Y-92275660D02*
X58087260Y-92275660D01*
X58087260Y-87073740D02*
X58585100Y-87073740D01*
X58585100Y-89674700D02*
X58087260Y-89674700D01*
X52786280Y-92473780D02*
X52786280Y-86875620D01*
X58585100Y-92473780D02*
X58585100Y-86875620D01*
X58585100Y-86875620D02*
X52387500Y-86875620D01*
X52387500Y-86875620D02*
X52387500Y-92473780D01*
X52387500Y-92473780D02*
X58585100Y-92473780D01*
X58087260Y-96997520D02*
X58087260Y-102595680D01*
X58585100Y-102397560D02*
X58087260Y-102397560D01*
X58087260Y-97195640D02*
X58585100Y-97195640D01*
X58585100Y-99796600D02*
X58087260Y-99796600D01*
X52786280Y-102595680D02*
X52786280Y-96997520D01*
X58585100Y-102595680D02*
X58585100Y-96997520D01*
X58585100Y-96997520D02*
X52387500Y-96997520D01*
X52387500Y-96997520D02*
X52387500Y-102595680D01*
X52387500Y-102595680D02*
X58585100Y-102595680D01*
X73304400Y-89524840D02*
X73304400Y-97723960D01*
X73703180Y-89524840D02*
X73703180Y-97723960D01*
X79004160Y-89524840D02*
X79004160Y-97723960D01*
X79502000Y-97723960D02*
X79502000Y-89524840D01*
X79004160Y-92323920D02*
X79502000Y-92323920D01*
X79502000Y-97523300D02*
X79004160Y-97523300D01*
X79004160Y-89722960D02*
X79502000Y-89722960D01*
X79502000Y-94922340D02*
X79004160Y-94922340D01*
X79502000Y-89524840D02*
X73304400Y-89524840D01*
X73304400Y-97721420D02*
X79502000Y-97721420D01*
D12*
X103800800Y-109763000D02*
X103800800Y-110963000D01*
X102040800Y-110963000D02*
X102040800Y-109763000D01*
X92770400Y-90687000D02*
X93970400Y-90687000D01*
X93970400Y-92447000D02*
X92770400Y-92447000D01*
X103785560Y-103783840D02*
X103785560Y-104983840D01*
X102025560Y-104983840D02*
X102025560Y-103783840D01*
X77196400Y-99640500D02*
X78396400Y-99640500D01*
X78396400Y-101400500D02*
X77196400Y-101400500D01*
X78412900Y-103889700D02*
X77212900Y-103889700D01*
X77212900Y-102129700D02*
X78412900Y-102129700D01*
X51489500Y-86340400D02*
X51489500Y-87540400D01*
X49729500Y-87540400D02*
X49729500Y-86340400D01*
X58169100Y-107674300D02*
X56969100Y-107674300D01*
X56969100Y-105914300D02*
X58169100Y-105914300D01*
X49779500Y-92513700D02*
X49779500Y-91313700D01*
X51539500Y-91313700D02*
X51539500Y-92513700D01*
X83099800Y-91783600D02*
X83099800Y-92983600D01*
X81339800Y-92983600D02*
X81339800Y-91783600D01*
X51489500Y-96609600D02*
X51489500Y-97809600D01*
X49729500Y-97809600D02*
X49729500Y-96609600D01*
X49794800Y-102978500D02*
X49794800Y-101778500D01*
X51554800Y-101778500D02*
X51554800Y-102978500D01*
D11*
X80492600Y-104851200D02*
X80492600Y-107391200D01*
X80492600Y-107391200D02*
X72872600Y-107391200D01*
X72872600Y-107391200D02*
X72872600Y-104851200D01*
X72872600Y-104851200D02*
X80492600Y-104851200D01*
X77952600Y-107391200D02*
X77952600Y-104851200D01*
X107047400Y-105965500D02*
X107047400Y-110465500D01*
X111047400Y-104715500D02*
X109547400Y-104715500D01*
X113547400Y-110465500D02*
X113547400Y-105965500D01*
X109547400Y-111715500D02*
X111047400Y-111715500D01*
X64057900Y-112294300D02*
X68557900Y-112294300D01*
X62807900Y-108294300D02*
X62807900Y-109794300D01*
X68557900Y-105794300D02*
X64057900Y-105794300D01*
X69807900Y-109794300D02*
X69807900Y-108294300D01*
D12*
X121307880Y-93954280D02*
X120047880Y-93954280D01*
X114487880Y-93954280D02*
X115747880Y-93954280D01*
X121307880Y-97714280D02*
X121307880Y-93954280D01*
X114487880Y-99964280D02*
X114487880Y-93954280D01*
D14*
X98907600Y-97675700D02*
X98907600Y-96913700D01*
X98907600Y-96913700D02*
X82905600Y-96913700D01*
X82905600Y-96913700D02*
X82905600Y-97675700D01*
D12*
X121311720Y-81214040D02*
X120051720Y-81214040D01*
X114491720Y-81214040D02*
X115751720Y-81214040D01*
X121311720Y-84974040D02*
X121311720Y-81214040D01*
X114491720Y-87224040D02*
X114491720Y-81214040D01*
D11*
X75580240Y-75145900D02*
X75981560Y-74945240D01*
X75981560Y-74945240D02*
X76581000Y-74843640D01*
X76581000Y-74843640D02*
X77081380Y-74945240D01*
X77081380Y-74945240D02*
X77779880Y-75344020D01*
X77779880Y-75344020D02*
X78181200Y-75946000D01*
X78181200Y-75946000D02*
X78381860Y-76545440D01*
X78381860Y-76545440D02*
X78381860Y-83144360D01*
X78381860Y-83144360D02*
X78181200Y-83845400D01*
X78181200Y-83845400D02*
X77881480Y-84244180D01*
X77881480Y-84244180D02*
X77381100Y-84645500D01*
X77381100Y-84645500D02*
X76781660Y-84846160D01*
X76781660Y-84846160D02*
X76281280Y-84846160D01*
X76281280Y-84846160D02*
X75780900Y-84645500D01*
X75780900Y-84645500D02*
X75181460Y-84145120D01*
X75181460Y-84145120D02*
X74881740Y-83644740D01*
X74881740Y-83644740D02*
X74780140Y-83144360D01*
X74780140Y-83045300D02*
X74780140Y-76443840D01*
X74780140Y-76443840D02*
X74881740Y-76045060D01*
X74881740Y-76045060D02*
X75181460Y-75544680D01*
X75181460Y-75544680D02*
X75681840Y-75044300D01*
X74251820Y-83035140D02*
X74300080Y-83494880D01*
X74300080Y-83494880D02*
X74411840Y-83893660D01*
X74411840Y-83893660D02*
X74630280Y-84325460D01*
X74630280Y-84325460D02*
X74861420Y-84615020D01*
X74861420Y-84615020D02*
X75211940Y-84945220D01*
X75211940Y-84945220D02*
X75750420Y-85234780D01*
X75750420Y-85234780D02*
X76349860Y-85364320D01*
X76349860Y-85364320D02*
X76860400Y-85364320D01*
X76860400Y-85364320D02*
X77561440Y-85194140D01*
X77561440Y-85194140D02*
X78150720Y-84795360D01*
X78150720Y-84795360D02*
X78521560Y-84335620D01*
X78521560Y-84335620D02*
X78729840Y-83913980D01*
X78729840Y-83913980D02*
X78889860Y-83464400D01*
X78889860Y-83464400D02*
X78920340Y-83024980D01*
X78701900Y-75684380D02*
X78480920Y-75305920D01*
X78480920Y-75305920D02*
X78201520Y-74985880D01*
X78201520Y-74985880D02*
X77871320Y-74734420D01*
X77871320Y-74734420D02*
X77320140Y-74434700D01*
X77320140Y-74434700D02*
X76850240Y-74325480D01*
X76850240Y-74325480D02*
X76390500Y-74305160D01*
X76390500Y-74305160D02*
X75930760Y-74394060D01*
X75930760Y-74394060D02*
X75481180Y-74584560D01*
X75481180Y-74584560D02*
X75011280Y-74945240D01*
X75011280Y-74945240D02*
X74691240Y-75295760D01*
X74691240Y-75295760D02*
X74460100Y-75684380D01*
X74460100Y-75684380D02*
X74320400Y-76113640D01*
X74320400Y-76113640D02*
X74251820Y-76555600D01*
X78910180Y-83045300D02*
X78910180Y-76593700D01*
X78910180Y-76593700D02*
X78872080Y-76174600D01*
X78872080Y-76174600D02*
X78701900Y-75684380D01*
X74251820Y-83045300D02*
X74251820Y-76593700D01*
X77236320Y-70068440D02*
X115336320Y-70068440D01*
X115336320Y-70068440D02*
X115336320Y-67528440D01*
X115336320Y-67528440D02*
X77236320Y-67528440D01*
X74416320Y-67248440D02*
X75966320Y-67248440D01*
X77236320Y-67528440D02*
X77236320Y-70068440D01*
X75966320Y-70348440D02*
X74416320Y-70348440D01*
X74416320Y-70348440D02*
X74416320Y-67248440D01*
X58087260Y-79242920D02*
X58087260Y-84841080D01*
X58585100Y-84642960D02*
X58087260Y-84642960D01*
X58087260Y-79441040D02*
X58585100Y-79441040D01*
X58585100Y-82042000D02*
X58087260Y-82042000D01*
X52786280Y-84841080D02*
X52786280Y-79242920D01*
X58585100Y-84841080D02*
X58585100Y-79242920D01*
X58585100Y-79242920D02*
X52387500Y-79242920D01*
X52387500Y-79242920D02*
X52387500Y-84841080D01*
X52387500Y-84841080D02*
X58585100Y-84841080D01*
X46929040Y-86094060D02*
X46929040Y-86475060D01*
X46929040Y-85078060D02*
X46929040Y-85459060D01*
X46929040Y-85459060D02*
X47310040Y-86094060D01*
X47310040Y-86094060D02*
X46548040Y-86094060D01*
X46548040Y-86094060D02*
X46929040Y-85459060D01*
X47437040Y-85459060D02*
X46421040Y-85459060D01*
X46029040Y-83776560D02*
X46029040Y-87316560D01*
X47829040Y-83776560D02*
X47829040Y-87316560D01*
X47035720Y-91763340D02*
X47035720Y-92144340D01*
X47035720Y-90747340D02*
X47035720Y-91128340D01*
X47035720Y-91128340D02*
X47416720Y-91763340D01*
X47416720Y-91763340D02*
X46654720Y-91763340D01*
X46654720Y-91763340D02*
X47035720Y-91128340D01*
X47543720Y-91128340D02*
X46527720Y-91128340D01*
X46135720Y-89445840D02*
X46135720Y-92985840D01*
X47935720Y-89445840D02*
X47935720Y-92985840D01*
X46984920Y-97173540D02*
X46984920Y-97554540D01*
X46984920Y-96157540D02*
X46984920Y-96538540D01*
X46984920Y-96538540D02*
X47365920Y-97173540D01*
X47365920Y-97173540D02*
X46603920Y-97173540D01*
X46603920Y-97173540D02*
X46984920Y-96538540D01*
X47492920Y-96538540D02*
X46476920Y-96538540D01*
X46084920Y-94856040D02*
X46084920Y-98396040D01*
X47884920Y-94856040D02*
X47884920Y-98396040D01*
X46984920Y-102736140D02*
X46984920Y-103117140D01*
X46984920Y-101720140D02*
X46984920Y-102101140D01*
X46984920Y-102101140D02*
X47365920Y-102736140D01*
X47365920Y-102736140D02*
X46603920Y-102736140D01*
X46603920Y-102736140D02*
X46984920Y-102101140D01*
X47492920Y-102101140D02*
X46476920Y-102101140D01*
X46084920Y-100418640D02*
X46084920Y-103958640D01*
X47884920Y-100418640D02*
X47884920Y-103958640D01*
D12*
X133008360Y-73884800D02*
G75*
G03X133008360Y-73884800I-2500000J0D01*
G01*
X137568360Y-80944800D02*
X123448360Y-80944800D01*
X137568360Y-66824800D02*
X123448360Y-66824800D01*
X137568360Y-80944800D02*
X137568360Y-80249800D01*
X137568360Y-77519800D02*
X137568360Y-70249800D01*
X137568360Y-67519800D02*
X137568360Y-66824800D01*
X123448360Y-80944800D02*
X123448360Y-75249800D01*
X123448360Y-72519800D02*
X123448360Y-66824800D01*
D15*
X119380000Y-114800380D02*
X128381760Y-114800380D01*
X119380000Y-118300500D02*
X128381760Y-118300500D01*
X128381760Y-118300500D02*
X128381760Y-103799640D01*
X128381760Y-103799640D02*
X119380000Y-103799640D01*
X119380000Y-103799640D02*
X119380000Y-118300500D01*
D11*
X108545334Y-93437983D02*
X108497715Y-93485602D01*
X108354858Y-93533221D01*
X108259620Y-93533221D01*
X108116762Y-93485602D01*
X108021524Y-93390364D01*
X107973905Y-93295126D01*
X107926286Y-93104650D01*
X107926286Y-92961792D01*
X107973905Y-92771316D01*
X108021524Y-92676078D01*
X108116762Y-92580840D01*
X108259620Y-92533221D01*
X108354858Y-92533221D01*
X108497715Y-92580840D01*
X108545334Y-92628459D01*
X109497715Y-93533221D02*
X108926286Y-93533221D01*
X109212000Y-93533221D02*
X109212000Y-92533221D01*
X109116762Y-92676078D01*
X109021524Y-92771316D01*
X108926286Y-92818935D01*
X134250134Y-94276183D02*
X134202515Y-94323802D01*
X134059658Y-94371421D01*
X133964420Y-94371421D01*
X133821562Y-94323802D01*
X133726324Y-94228564D01*
X133678705Y-94133326D01*
X133631086Y-93942850D01*
X133631086Y-93799992D01*
X133678705Y-93609516D01*
X133726324Y-93514278D01*
X133821562Y-93419040D01*
X133964420Y-93371421D01*
X134059658Y-93371421D01*
X134202515Y-93419040D01*
X134250134Y-93466659D01*
X134631086Y-93466659D02*
X134678705Y-93419040D01*
X134773943Y-93371421D01*
X135012039Y-93371421D01*
X135107277Y-93419040D01*
X135154896Y-93466659D01*
X135202515Y-93561897D01*
X135202515Y-93657135D01*
X135154896Y-93799992D01*
X134583467Y-94371421D01*
X135202515Y-94371421D01*
X83285034Y-84965843D02*
X83237415Y-85013462D01*
X83094558Y-85061081D01*
X82999320Y-85061081D01*
X82856462Y-85013462D01*
X82761224Y-84918224D01*
X82713605Y-84822986D01*
X82665986Y-84632510D01*
X82665986Y-84489652D01*
X82713605Y-84299176D01*
X82761224Y-84203938D01*
X82856462Y-84108700D01*
X82999320Y-84061081D01*
X83094558Y-84061081D01*
X83237415Y-84108700D01*
X83285034Y-84156319D01*
X83618367Y-84061081D02*
X84237415Y-84061081D01*
X83904081Y-84442033D01*
X84046939Y-84442033D01*
X84142177Y-84489652D01*
X84189796Y-84537271D01*
X84237415Y-84632510D01*
X84237415Y-84870605D01*
X84189796Y-84965843D01*
X84142177Y-85013462D01*
X84046939Y-85061081D01*
X83761224Y-85061081D01*
X83665986Y-85013462D01*
X83618367Y-84965843D01*
X83285034Y-79959503D02*
X83237415Y-80007122D01*
X83094558Y-80054741D01*
X82999320Y-80054741D01*
X82856462Y-80007122D01*
X82761224Y-79911884D01*
X82713605Y-79816646D01*
X82665986Y-79626170D01*
X82665986Y-79483312D01*
X82713605Y-79292836D01*
X82761224Y-79197598D01*
X82856462Y-79102360D01*
X82999320Y-79054741D01*
X83094558Y-79054741D01*
X83237415Y-79102360D01*
X83285034Y-79149979D01*
X84142177Y-79388074D02*
X84142177Y-80054741D01*
X83904081Y-79007122D02*
X83665986Y-79721408D01*
X84285034Y-79721408D01*
X132924254Y-86615543D02*
X132876635Y-86663162D01*
X132733778Y-86710781D01*
X132638540Y-86710781D01*
X132495682Y-86663162D01*
X132400444Y-86567924D01*
X132352825Y-86472686D01*
X132305206Y-86282210D01*
X132305206Y-86139352D01*
X132352825Y-85948876D01*
X132400444Y-85853638D01*
X132495682Y-85758400D01*
X132638540Y-85710781D01*
X132733778Y-85710781D01*
X132876635Y-85758400D01*
X132924254Y-85806019D01*
X133829016Y-85710781D02*
X133352825Y-85710781D01*
X133305206Y-86186971D01*
X133352825Y-86139352D01*
X133448063Y-86091733D01*
X133686159Y-86091733D01*
X133781397Y-86139352D01*
X133829016Y-86186971D01*
X133876635Y-86282210D01*
X133876635Y-86520305D01*
X133829016Y-86615543D01*
X133781397Y-86663162D01*
X133686159Y-86710781D01*
X133448063Y-86710781D01*
X133352825Y-86663162D01*
X133305206Y-86615543D01*
X108377694Y-82810623D02*
X108330075Y-82858242D01*
X108187218Y-82905861D01*
X108091980Y-82905861D01*
X107949122Y-82858242D01*
X107853884Y-82763004D01*
X107806265Y-82667766D01*
X107758646Y-82477290D01*
X107758646Y-82334432D01*
X107806265Y-82143956D01*
X107853884Y-82048718D01*
X107949122Y-81953480D01*
X108091980Y-81905861D01*
X108187218Y-81905861D01*
X108330075Y-81953480D01*
X108377694Y-82001099D01*
X109234837Y-81905861D02*
X109044360Y-81905861D01*
X108949122Y-81953480D01*
X108901503Y-82001099D01*
X108806265Y-82143956D01*
X108758646Y-82334432D01*
X108758646Y-82715385D01*
X108806265Y-82810623D01*
X108853884Y-82858242D01*
X108949122Y-82905861D01*
X109139599Y-82905861D01*
X109234837Y-82858242D01*
X109282456Y-82810623D01*
X109330075Y-82715385D01*
X109330075Y-82477290D01*
X109282456Y-82382051D01*
X109234837Y-82334432D01*
X109139599Y-82286813D01*
X108949122Y-82286813D01*
X108853884Y-82334432D01*
X108806265Y-82382051D01*
X108758646Y-82477290D01*
X87260205Y-93719381D02*
X87260205Y-92719381D01*
X87498300Y-92719381D01*
X87641158Y-92767000D01*
X87736396Y-92862238D01*
X87784015Y-92957476D01*
X87831634Y-93147952D01*
X87831634Y-93290810D01*
X87784015Y-93481286D01*
X87736396Y-93576524D01*
X87641158Y-93671762D01*
X87498300Y-93719381D01*
X87260205Y-93719381D01*
X88784015Y-93719381D02*
X88212586Y-93719381D01*
X88498300Y-93719381D02*
X88498300Y-92719381D01*
X88403062Y-92862238D01*
X88307824Y-92957476D01*
X88212586Y-93005095D01*
D14*
X131741092Y-99425034D02*
X131741092Y-98663034D01*
X131922520Y-98663034D01*
X132031377Y-98699320D01*
X132103949Y-98771891D01*
X132140234Y-98844463D01*
X132176520Y-98989606D01*
X132176520Y-99098463D01*
X132140234Y-99243606D01*
X132103949Y-99316177D01*
X132031377Y-99388749D01*
X131922520Y-99425034D01*
X131741092Y-99425034D01*
X132466806Y-98735606D02*
X132503092Y-98699320D01*
X132575663Y-98663034D01*
X132757092Y-98663034D01*
X132829663Y-98699320D01*
X132865949Y-98735606D01*
X132902234Y-98808177D01*
X132902234Y-98880749D01*
X132865949Y-98989606D01*
X132430520Y-99425034D01*
X132902234Y-99425034D01*
D16*
X57184378Y-68682024D02*
X57184378Y-67041584D01*
X58902934Y-68525791D02*
X58824818Y-68603908D01*
X58590469Y-68682024D01*
X58434237Y-68682024D01*
X58199889Y-68603908D01*
X58043656Y-68447675D01*
X57965540Y-68291443D01*
X57887424Y-67978978D01*
X57887424Y-67744630D01*
X57965540Y-67432165D01*
X58043656Y-67275932D01*
X58199889Y-67119700D01*
X58434237Y-67041584D01*
X58590469Y-67041584D01*
X58824818Y-67119700D01*
X58902934Y-67197816D01*
X60465258Y-68682024D02*
X59527864Y-68682024D01*
X59996561Y-68682024D02*
X59996561Y-67041584D01*
X59840329Y-67275932D01*
X59684096Y-67432165D01*
X59527864Y-67510281D01*
X55614329Y-105647613D02*
X56396652Y-105647613D01*
X55457864Y-106117008D02*
X56005490Y-104474128D01*
X56553117Y-106117008D01*
X56866047Y-104474128D02*
X57804835Y-104474128D01*
X57335441Y-106117008D02*
X57335441Y-104474128D01*
X58352462Y-106117008D02*
X58352462Y-104474128D01*
X58900089Y-105647613D01*
X59447715Y-104474128D01*
X59447715Y-106117008D01*
X60230039Y-105256451D02*
X60777666Y-105256451D01*
X61012363Y-106117008D02*
X60230039Y-106117008D01*
X60230039Y-104474128D01*
X61012363Y-104474128D01*
X62577010Y-104552360D02*
X62420545Y-104474128D01*
X62185848Y-104474128D01*
X61951151Y-104552360D01*
X61794686Y-104708825D01*
X61716454Y-104865290D01*
X61638222Y-105178219D01*
X61638222Y-105412916D01*
X61716454Y-105725846D01*
X61794686Y-105882310D01*
X61951151Y-106038775D01*
X62185848Y-106117008D01*
X62342313Y-106117008D01*
X62577010Y-106038775D01*
X62655242Y-105960543D01*
X62655242Y-105412916D01*
X62342313Y-105412916D01*
X63281102Y-105647613D02*
X64063425Y-105647613D01*
X63124637Y-106117008D02*
X63672263Y-104474128D01*
X64219890Y-106117008D01*
X64611052Y-104474128D02*
X65628073Y-104474128D01*
X65080446Y-105099987D01*
X65315144Y-105099987D01*
X65471608Y-105178219D01*
X65549841Y-105256451D01*
X65628073Y-105412916D01*
X65628073Y-105804078D01*
X65549841Y-105960543D01*
X65471608Y-106038775D01*
X65315144Y-106117008D01*
X64845749Y-106117008D01*
X64689285Y-106038775D01*
X64611052Y-105960543D01*
X66253933Y-104630592D02*
X66332165Y-104552360D01*
X66488630Y-104474128D01*
X66879792Y-104474128D01*
X67036256Y-104552360D01*
X67114489Y-104630592D01*
X67192721Y-104787057D01*
X67192721Y-104943522D01*
X67114489Y-105178219D01*
X66175700Y-106117008D01*
X67192721Y-106117008D01*
X68131510Y-105178219D02*
X67975045Y-105099987D01*
X67896813Y-105021754D01*
X67818581Y-104865290D01*
X67818581Y-104787057D01*
X67896813Y-104630592D01*
X67975045Y-104552360D01*
X68131510Y-104474128D01*
X68444440Y-104474128D01*
X68600904Y-104552360D01*
X68679137Y-104630592D01*
X68757369Y-104787057D01*
X68757369Y-104865290D01*
X68679137Y-105021754D01*
X68600904Y-105099987D01*
X68444440Y-105178219D01*
X68131510Y-105178219D01*
X67975045Y-105256451D01*
X67896813Y-105334684D01*
X67818581Y-105491149D01*
X67818581Y-105804078D01*
X67896813Y-105960543D01*
X67975045Y-106038775D01*
X68131510Y-106117008D01*
X68444440Y-106117008D01*
X68600904Y-106038775D01*
X68679137Y-105960543D01*
X68757369Y-105804078D01*
X68757369Y-105491149D01*
X68679137Y-105334684D01*
X68600904Y-105256451D01*
X68444440Y-105178219D01*
X69461461Y-105491149D02*
X70713179Y-105491149D01*
X71495503Y-106117008D02*
X71495503Y-104474128D01*
X72121362Y-104474128D01*
X72277827Y-104552360D01*
X72356059Y-104630592D01*
X72434291Y-104787057D01*
X72434291Y-105021754D01*
X72356059Y-105178219D01*
X72277827Y-105256451D01*
X72121362Y-105334684D01*
X71495503Y-105334684D01*
D11*
X55203767Y-93178381D02*
X55203767Y-93892667D01*
X55156147Y-94035524D01*
X55060909Y-94130762D01*
X54918052Y-94178381D01*
X54822814Y-94178381D01*
X55632338Y-93273619D02*
X55679957Y-93226000D01*
X55775195Y-93178381D01*
X56013291Y-93178381D01*
X56108529Y-93226000D01*
X56156148Y-93273619D01*
X56203767Y-93368857D01*
X56203767Y-93464095D01*
X56156148Y-93606952D01*
X55584719Y-94178381D01*
X56203767Y-94178381D01*
X55165667Y-103236781D02*
X55165667Y-103951067D01*
X55118047Y-104093924D01*
X55022809Y-104189162D01*
X54879952Y-104236781D01*
X54784714Y-104236781D01*
X55546619Y-103236781D02*
X56165667Y-103236781D01*
X55832333Y-103617733D01*
X55975191Y-103617733D01*
X56070429Y-103665352D01*
X56118048Y-103712971D01*
X56165667Y-103808210D01*
X56165667Y-104046305D01*
X56118048Y-104141543D01*
X56070429Y-104189162D01*
X55975191Y-104236781D01*
X55689476Y-104236781D01*
X55594238Y-104189162D01*
X55546619Y-104141543D01*
X71354701Y-93957733D02*
X72068987Y-93957733D01*
X72211844Y-94005353D01*
X72307082Y-94100591D01*
X72354701Y-94243448D01*
X72354701Y-94338686D01*
X71688034Y-93052971D02*
X72354701Y-93052971D01*
X71307082Y-93291067D02*
X72021368Y-93529162D01*
X72021368Y-92910114D01*
X101673181Y-110529666D02*
X101196990Y-110863000D01*
X101673181Y-111101095D02*
X100673181Y-111101095D01*
X100673181Y-110720142D01*
X100720800Y-110624904D01*
X100768419Y-110577285D01*
X100863657Y-110529666D01*
X101006514Y-110529666D01*
X101101752Y-110577285D01*
X101149371Y-110624904D01*
X101196990Y-110720142D01*
X101196990Y-111101095D01*
X101673181Y-109577285D02*
X101673181Y-110148714D01*
X101673181Y-109863000D02*
X100673181Y-109863000D01*
X100816038Y-109958238D01*
X100911276Y-110053476D01*
X100958895Y-110148714D01*
X93203734Y-93719381D02*
X92870400Y-93243190D01*
X92632305Y-93719381D02*
X92632305Y-92719381D01*
X93013258Y-92719381D01*
X93108496Y-92767000D01*
X93156115Y-92814619D01*
X93203734Y-92909857D01*
X93203734Y-93052714D01*
X93156115Y-93147952D01*
X93108496Y-93195571D01*
X93013258Y-93243190D01*
X92632305Y-93243190D01*
X93584686Y-92814619D02*
X93632305Y-92767000D01*
X93727543Y-92719381D01*
X93965639Y-92719381D01*
X94060877Y-92767000D01*
X94108496Y-92814619D01*
X94156115Y-92909857D01*
X94156115Y-93005095D01*
X94108496Y-93147952D01*
X93537067Y-93719381D01*
X94156115Y-93719381D01*
X101657941Y-104550506D02*
X101181750Y-104883840D01*
X101657941Y-105121935D02*
X100657941Y-105121935D01*
X100657941Y-104740982D01*
X100705560Y-104645744D01*
X100753179Y-104598125D01*
X100848417Y-104550506D01*
X100991274Y-104550506D01*
X101086512Y-104598125D01*
X101134131Y-104645744D01*
X101181750Y-104740982D01*
X101181750Y-105121935D01*
X100657941Y-104217173D02*
X100657941Y-103598125D01*
X101038893Y-103931459D01*
X101038893Y-103788601D01*
X101086512Y-103693363D01*
X101134131Y-103645744D01*
X101229370Y-103598125D01*
X101467465Y-103598125D01*
X101562703Y-103645744D01*
X101610322Y-103693363D01*
X101657941Y-103788601D01*
X101657941Y-104074316D01*
X101610322Y-104169554D01*
X101562703Y-104217173D01*
X73912434Y-100934781D02*
X73579100Y-100458590D01*
X73341005Y-100934781D02*
X73341005Y-99934781D01*
X73721958Y-99934781D01*
X73817196Y-99982400D01*
X73864815Y-100030019D01*
X73912434Y-100125257D01*
X73912434Y-100268114D01*
X73864815Y-100363352D01*
X73817196Y-100410971D01*
X73721958Y-100458590D01*
X73341005Y-100458590D01*
X74769577Y-100268114D02*
X74769577Y-100934781D01*
X74531481Y-99887162D02*
X74293386Y-100601448D01*
X74912434Y-100601448D01*
X73950534Y-103411281D02*
X73617200Y-102935090D01*
X73379105Y-103411281D02*
X73379105Y-102411281D01*
X73760058Y-102411281D01*
X73855296Y-102458900D01*
X73902915Y-102506519D01*
X73950534Y-102601757D01*
X73950534Y-102744614D01*
X73902915Y-102839852D01*
X73855296Y-102887471D01*
X73760058Y-102935090D01*
X73379105Y-102935090D01*
X74855296Y-102411281D02*
X74379105Y-102411281D01*
X74331486Y-102887471D01*
X74379105Y-102839852D01*
X74474343Y-102792233D01*
X74712439Y-102792233D01*
X74807677Y-102839852D01*
X74855296Y-102887471D01*
X74902915Y-102982710D01*
X74902915Y-103220805D01*
X74855296Y-103316043D01*
X74807677Y-103363662D01*
X74712439Y-103411281D01*
X74474343Y-103411281D01*
X74379105Y-103363662D01*
X74331486Y-103316043D01*
X49361881Y-87107066D02*
X48885690Y-87440400D01*
X49361881Y-87678495D02*
X48361881Y-87678495D01*
X48361881Y-87297542D01*
X48409500Y-87202304D01*
X48457119Y-87154685D01*
X48552357Y-87107066D01*
X48695214Y-87107066D01*
X48790452Y-87154685D01*
X48838071Y-87202304D01*
X48885690Y-87297542D01*
X48885690Y-87678495D01*
X48361881Y-86249923D02*
X48361881Y-86440400D01*
X48409500Y-86535638D01*
X48457119Y-86583257D01*
X48599976Y-86678495D01*
X48790452Y-86726114D01*
X49171405Y-86726114D01*
X49266643Y-86678495D01*
X49314262Y-86630876D01*
X49361881Y-86535638D01*
X49361881Y-86345161D01*
X49314262Y-86249923D01*
X49266643Y-86202304D01*
X49171405Y-86154685D01*
X48933310Y-86154685D01*
X48838071Y-86202304D01*
X48790452Y-86249923D01*
X48742833Y-86345161D01*
X48742833Y-86535638D01*
X48790452Y-86630876D01*
X48838071Y-86678495D01*
X48933310Y-86726114D01*
X57364334Y-109202481D02*
X57031000Y-108726290D01*
X56792905Y-109202481D02*
X56792905Y-108202481D01*
X57173858Y-108202481D01*
X57269096Y-108250100D01*
X57316715Y-108297719D01*
X57364334Y-108392957D01*
X57364334Y-108535814D01*
X57316715Y-108631052D01*
X57269096Y-108678671D01*
X57173858Y-108726290D01*
X56792905Y-108726290D01*
X57697667Y-108202481D02*
X58364334Y-108202481D01*
X57935762Y-109202481D01*
X49413421Y-92048626D02*
X48937230Y-92381960D01*
X49413421Y-92620055D02*
X48413421Y-92620055D01*
X48413421Y-92239102D01*
X48461040Y-92143864D01*
X48508659Y-92096245D01*
X48603897Y-92048626D01*
X48746754Y-92048626D01*
X48841992Y-92096245D01*
X48889611Y-92143864D01*
X48937230Y-92239102D01*
X48937230Y-92620055D01*
X48841992Y-91477198D02*
X48794373Y-91572436D01*
X48746754Y-91620055D01*
X48651516Y-91667674D01*
X48603897Y-91667674D01*
X48508659Y-91620055D01*
X48461040Y-91572436D01*
X48413421Y-91477198D01*
X48413421Y-91286721D01*
X48461040Y-91191483D01*
X48508659Y-91143864D01*
X48603897Y-91096245D01*
X48651516Y-91096245D01*
X48746754Y-91143864D01*
X48794373Y-91191483D01*
X48841992Y-91286721D01*
X48841992Y-91477198D01*
X48889611Y-91572436D01*
X48937230Y-91620055D01*
X49032469Y-91667674D01*
X49222945Y-91667674D01*
X49318183Y-91620055D01*
X49365802Y-91572436D01*
X49413421Y-91477198D01*
X49413421Y-91286721D01*
X49365802Y-91191483D01*
X49318183Y-91143864D01*
X49222945Y-91096245D01*
X49032469Y-91096245D01*
X48937230Y-91143864D01*
X48889611Y-91191483D01*
X48841992Y-91286721D01*
X80972181Y-92550266D02*
X80495990Y-92883600D01*
X80972181Y-93121695D02*
X79972181Y-93121695D01*
X79972181Y-92740742D01*
X80019800Y-92645504D01*
X80067419Y-92597885D01*
X80162657Y-92550266D01*
X80305514Y-92550266D01*
X80400752Y-92597885D01*
X80448371Y-92645504D01*
X80495990Y-92740742D01*
X80495990Y-93121695D01*
X80972181Y-92074076D02*
X80972181Y-91883600D01*
X80924562Y-91788361D01*
X80876943Y-91740742D01*
X80734086Y-91645504D01*
X80543610Y-91597885D01*
X80162657Y-91597885D01*
X80067419Y-91645504D01*
X80019800Y-91693123D01*
X79972181Y-91788361D01*
X79972181Y-91978838D01*
X80019800Y-92074076D01*
X80067419Y-92121695D01*
X80162657Y-92169314D01*
X80400752Y-92169314D01*
X80495990Y-92121695D01*
X80543610Y-92074076D01*
X80591229Y-91978838D01*
X80591229Y-91788361D01*
X80543610Y-91693123D01*
X80495990Y-91645504D01*
X80400752Y-91597885D01*
X49361881Y-97852457D02*
X48885690Y-98185791D01*
X49361881Y-98423886D02*
X48361881Y-98423886D01*
X48361881Y-98042933D01*
X48409500Y-97947695D01*
X48457119Y-97900076D01*
X48552357Y-97852457D01*
X48695214Y-97852457D01*
X48790452Y-97900076D01*
X48838071Y-97947695D01*
X48885690Y-98042933D01*
X48885690Y-98423886D01*
X49361881Y-96900076D02*
X49361881Y-97471505D01*
X49361881Y-97185791D02*
X48361881Y-97185791D01*
X48504738Y-97281029D01*
X48599976Y-97376267D01*
X48647595Y-97471505D01*
X48361881Y-96281029D02*
X48361881Y-96185790D01*
X48409500Y-96090552D01*
X48457119Y-96042933D01*
X48552357Y-95995314D01*
X48742833Y-95947695D01*
X48980929Y-95947695D01*
X49171405Y-95995314D01*
X49266643Y-96042933D01*
X49314262Y-96090552D01*
X49361881Y-96185790D01*
X49361881Y-96281029D01*
X49314262Y-96376267D01*
X49266643Y-96423886D01*
X49171405Y-96471505D01*
X48980929Y-96519124D01*
X48742833Y-96519124D01*
X48552357Y-96471505D01*
X48457119Y-96423886D01*
X48409500Y-96376267D01*
X48361881Y-96281029D01*
X49361881Y-102839757D02*
X48885690Y-103173091D01*
X49361881Y-103411186D02*
X48361881Y-103411186D01*
X48361881Y-103030233D01*
X48409500Y-102934995D01*
X48457119Y-102887376D01*
X48552357Y-102839757D01*
X48695214Y-102839757D01*
X48790452Y-102887376D01*
X48838071Y-102934995D01*
X48885690Y-103030233D01*
X48885690Y-103411186D01*
X49361881Y-101887376D02*
X49361881Y-102458805D01*
X49361881Y-102173091D02*
X48361881Y-102173091D01*
X48504738Y-102268329D01*
X48599976Y-102363567D01*
X48647595Y-102458805D01*
X49361881Y-100934995D02*
X49361881Y-101506424D01*
X49361881Y-101220710D02*
X48361881Y-101220710D01*
X48504738Y-101315948D01*
X48599976Y-101411186D01*
X48647595Y-101506424D01*
X75920695Y-109065962D02*
X76063552Y-109113581D01*
X76301648Y-109113581D01*
X76396886Y-109065962D01*
X76444505Y-109018343D01*
X76492124Y-108923105D01*
X76492124Y-108827867D01*
X76444505Y-108732629D01*
X76396886Y-108685010D01*
X76301648Y-108637390D01*
X76111171Y-108589771D01*
X76015933Y-108542152D01*
X75968314Y-108494533D01*
X75920695Y-108399295D01*
X75920695Y-108304057D01*
X75968314Y-108208819D01*
X76015933Y-108161200D01*
X76111171Y-108113581D01*
X76349267Y-108113581D01*
X76492124Y-108161200D01*
X77444505Y-109113581D02*
X76873076Y-109113581D01*
X77158790Y-109113581D02*
X77158790Y-108113581D01*
X77063552Y-108256438D01*
X76968314Y-108351676D01*
X76873076Y-108399295D01*
X114952162Y-109548833D02*
X114999781Y-109405976D01*
X114999781Y-109167880D01*
X114952162Y-109072642D01*
X114904543Y-109025023D01*
X114809305Y-108977404D01*
X114714067Y-108977404D01*
X114618829Y-109025023D01*
X114571210Y-109072642D01*
X114523590Y-109167880D01*
X114475971Y-109358357D01*
X114428352Y-109453595D01*
X114380733Y-109501214D01*
X114285495Y-109548833D01*
X114190257Y-109548833D01*
X114095019Y-109501214D01*
X114047400Y-109453595D01*
X113999781Y-109358357D01*
X113999781Y-109120261D01*
X114047400Y-108977404D01*
X113999781Y-108644071D02*
X114999781Y-108405976D01*
X114285495Y-108215499D01*
X114999781Y-108025023D01*
X113999781Y-107786928D01*
X114999781Y-106882166D02*
X114999781Y-107453595D01*
X114999781Y-107167881D02*
X113999781Y-107167881D01*
X114142638Y-107263119D01*
X114237876Y-107358357D01*
X114285495Y-107453595D01*
X71640867Y-112571162D02*
X71783724Y-112618781D01*
X72021820Y-112618781D01*
X72117058Y-112571162D01*
X72164677Y-112523543D01*
X72212296Y-112428305D01*
X72212296Y-112333067D01*
X72164677Y-112237829D01*
X72117058Y-112190210D01*
X72021820Y-112142590D01*
X71831343Y-112094971D01*
X71736105Y-112047352D01*
X71688486Y-111999733D01*
X71640867Y-111904495D01*
X71640867Y-111809257D01*
X71688486Y-111714019D01*
X71736105Y-111666400D01*
X71831343Y-111618781D01*
X72069439Y-111618781D01*
X72212296Y-111666400D01*
X72545629Y-111618781D02*
X72783724Y-112618781D01*
X72974201Y-111904495D01*
X73164677Y-112618781D01*
X73402772Y-111618781D01*
X73736105Y-111714019D02*
X73783724Y-111666400D01*
X73878962Y-111618781D01*
X74117058Y-111618781D01*
X74212296Y-111666400D01*
X74259915Y-111714019D01*
X74307534Y-111809257D01*
X74307534Y-111904495D01*
X74259915Y-112047352D01*
X73688486Y-112618781D01*
X74307534Y-112618781D01*
X117266815Y-89480141D02*
X117266815Y-90289665D01*
X117314434Y-90384903D01*
X117362053Y-90432522D01*
X117457291Y-90480141D01*
X117647768Y-90480141D01*
X117743006Y-90432522D01*
X117790625Y-90384903D01*
X117838244Y-90289665D01*
X117838244Y-89480141D01*
X118838244Y-90480141D02*
X118266815Y-90480141D01*
X118552529Y-90480141D02*
X118552529Y-89480141D01*
X118457291Y-89622998D01*
X118362053Y-89718236D01*
X118266815Y-89765855D01*
X90180255Y-104831901D02*
X90180255Y-105641425D01*
X90227874Y-105736663D01*
X90275493Y-105784282D01*
X90370731Y-105831901D01*
X90561208Y-105831901D01*
X90656446Y-105784282D01*
X90704065Y-105736663D01*
X90751684Y-105641425D01*
X90751684Y-104831901D01*
X91180255Y-104927139D02*
X91227874Y-104879520D01*
X91323112Y-104831901D01*
X91561208Y-104831901D01*
X91656446Y-104879520D01*
X91704065Y-104927139D01*
X91751684Y-105022377D01*
X91751684Y-105117615D01*
X91704065Y-105260472D01*
X91132636Y-105831901D01*
X91751684Y-105831901D01*
X117195695Y-77161141D02*
X117195695Y-77970665D01*
X117243314Y-78065903D01*
X117290933Y-78113522D01*
X117386171Y-78161141D01*
X117576648Y-78161141D01*
X117671886Y-78113522D01*
X117719505Y-78065903D01*
X117767124Y-77970665D01*
X117767124Y-77161141D01*
X118148076Y-77161141D02*
X118767124Y-77161141D01*
X118433790Y-77542093D01*
X118576648Y-77542093D01*
X118671886Y-77589712D01*
X118719505Y-77637331D01*
X118767124Y-77732570D01*
X118767124Y-77970665D01*
X118719505Y-78065903D01*
X118671886Y-78113522D01*
X118576648Y-78161141D01*
X118290933Y-78161141D01*
X118195695Y-78113522D01*
X118148076Y-78065903D01*
X72223381Y-80654424D02*
X73223381Y-79987757D01*
X72223381Y-79987757D02*
X73223381Y-80654424D01*
X73223381Y-79082995D02*
X73223381Y-79654424D01*
X73223381Y-79368710D02*
X72223381Y-79368710D01*
X72366238Y-79463948D01*
X72461476Y-79559186D01*
X72509095Y-79654424D01*
X117333021Y-69926366D02*
X116333021Y-69926366D01*
X116333021Y-69688271D01*
X116380640Y-69545413D01*
X116475878Y-69450175D01*
X116571116Y-69402556D01*
X116761592Y-69354937D01*
X116904450Y-69354937D01*
X117094926Y-69402556D01*
X117190164Y-69450175D01*
X117285402Y-69545413D01*
X117333021Y-69688271D01*
X117333021Y-69926366D01*
X117285402Y-68973985D02*
X117333021Y-68831128D01*
X117333021Y-68593032D01*
X117285402Y-68497794D01*
X117237783Y-68450175D01*
X117142545Y-68402556D01*
X117047307Y-68402556D01*
X116952069Y-68450175D01*
X116904450Y-68497794D01*
X116856830Y-68593032D01*
X116809211Y-68783509D01*
X116761592Y-68878747D01*
X116713973Y-68926366D01*
X116618735Y-68973985D01*
X116523497Y-68973985D01*
X116428259Y-68926366D01*
X116380640Y-68878747D01*
X116333021Y-68783509D01*
X116333021Y-68545413D01*
X116380640Y-68402556D01*
X117333021Y-67450175D02*
X117333021Y-68021604D01*
X117333021Y-67735890D02*
X116333021Y-67735890D01*
X116475878Y-67831128D01*
X116571116Y-67926366D01*
X116618735Y-68021604D01*
X54980247Y-85258661D02*
X54980247Y-85972947D01*
X54932627Y-86115804D01*
X54837389Y-86211042D01*
X54694532Y-86258661D01*
X54599294Y-86258661D01*
X55932628Y-85258661D02*
X55456437Y-85258661D01*
X55408818Y-85734851D01*
X55456437Y-85687232D01*
X55551675Y-85639613D01*
X55789771Y-85639613D01*
X55885009Y-85687232D01*
X55932628Y-85734851D01*
X55980247Y-85830090D01*
X55980247Y-86068185D01*
X55932628Y-86163423D01*
X55885009Y-86211042D01*
X55789771Y-86258661D01*
X55551675Y-86258661D01*
X55456437Y-86211042D01*
X55408818Y-86163423D01*
X45197021Y-86742495D02*
X44197021Y-86742495D01*
X44197021Y-86504400D01*
X44244640Y-86361542D01*
X44339878Y-86266304D01*
X44435116Y-86218685D01*
X44625592Y-86171066D01*
X44768450Y-86171066D01*
X44958926Y-86218685D01*
X45054164Y-86266304D01*
X45149402Y-86361542D01*
X45197021Y-86504400D01*
X45197021Y-86742495D01*
X44197021Y-85837733D02*
X44197021Y-85218685D01*
X44577973Y-85552019D01*
X44577973Y-85409161D01*
X44625592Y-85313923D01*
X44673211Y-85266304D01*
X44768450Y-85218685D01*
X45006545Y-85218685D01*
X45101783Y-85266304D01*
X45149402Y-85313923D01*
X45197021Y-85409161D01*
X45197021Y-85694876D01*
X45149402Y-85790114D01*
X45101783Y-85837733D01*
X45461181Y-92254295D02*
X44461181Y-92254295D01*
X44461181Y-92016200D01*
X44508800Y-91873342D01*
X44604038Y-91778104D01*
X44699276Y-91730485D01*
X44889752Y-91682866D01*
X45032610Y-91682866D01*
X45223086Y-91730485D01*
X45318324Y-91778104D01*
X45413562Y-91873342D01*
X45461181Y-92016200D01*
X45461181Y-92254295D01*
X44794514Y-90825723D02*
X45461181Y-90825723D01*
X44413562Y-91063819D02*
X45127848Y-91301914D01*
X45127848Y-90682866D01*
X45354501Y-97664495D02*
X44354501Y-97664495D01*
X44354501Y-97426400D01*
X44402120Y-97283542D01*
X44497358Y-97188304D01*
X44592596Y-97140685D01*
X44783072Y-97093066D01*
X44925930Y-97093066D01*
X45116406Y-97140685D01*
X45211644Y-97188304D01*
X45306882Y-97283542D01*
X45354501Y-97426400D01*
X45354501Y-97664495D01*
X44354501Y-96188304D02*
X44354501Y-96664495D01*
X44830691Y-96712114D01*
X44783072Y-96664495D01*
X44735453Y-96569257D01*
X44735453Y-96331161D01*
X44783072Y-96235923D01*
X44830691Y-96188304D01*
X44925930Y-96140685D01*
X45164025Y-96140685D01*
X45259263Y-96188304D01*
X45306882Y-96235923D01*
X45354501Y-96331161D01*
X45354501Y-96569257D01*
X45306882Y-96664495D01*
X45259263Y-96712114D01*
X45197021Y-103181375D02*
X44197021Y-103181375D01*
X44197021Y-102943280D01*
X44244640Y-102800422D01*
X44339878Y-102705184D01*
X44435116Y-102657565D01*
X44625592Y-102609946D01*
X44768450Y-102609946D01*
X44958926Y-102657565D01*
X45054164Y-102705184D01*
X45149402Y-102800422D01*
X45197021Y-102943280D01*
X45197021Y-103181375D01*
X44197021Y-101752803D02*
X44197021Y-101943280D01*
X44244640Y-102038518D01*
X44292259Y-102086137D01*
X44435116Y-102181375D01*
X44625592Y-102228994D01*
X45006545Y-102228994D01*
X45101783Y-102181375D01*
X45149402Y-102133756D01*
X45197021Y-102038518D01*
X45197021Y-101848041D01*
X45149402Y-101752803D01*
X45101783Y-101705184D01*
X45006545Y-101657565D01*
X44768450Y-101657565D01*
X44673211Y-101705184D01*
X44625592Y-101752803D01*
X44577973Y-101848041D01*
X44577973Y-102038518D01*
X44625592Y-102133756D01*
X44673211Y-102181375D01*
X44768450Y-102228994D01*
X120975381Y-69439398D02*
X120499190Y-69772732D01*
X120975381Y-70010827D02*
X119975381Y-70010827D01*
X119975381Y-69629874D01*
X120023000Y-69534636D01*
X120070619Y-69487017D01*
X120165857Y-69439398D01*
X120308714Y-69439398D01*
X120403952Y-69487017D01*
X120451571Y-69534636D01*
X120499190Y-69629874D01*
X120499190Y-70010827D01*
X119975381Y-69153684D02*
X120975381Y-68820351D01*
X119975381Y-68487017D01*
X120975381Y-67629874D02*
X120975381Y-68201303D01*
X120975381Y-67915589D02*
X119975381Y-67915589D01*
X120118238Y-68010827D01*
X120213476Y-68106065D01*
X120261095Y-68201303D01*
D14*
X125626881Y-116934994D02*
X125626881Y-117479280D01*
X125590595Y-117588137D01*
X125518024Y-117660709D01*
X125409167Y-117696994D01*
X125336595Y-117696994D01*
X126388880Y-117696994D02*
X125953452Y-117696994D01*
X126171166Y-117696994D02*
X126171166Y-116934994D01*
X126098595Y-117043851D01*
X126026023Y-117116423D01*
X125953452Y-117152709D01*
X118286166Y-109845850D02*
X118249880Y-109809564D01*
X118213594Y-109736993D01*
X118213594Y-109555564D01*
X118249880Y-109482993D01*
X118286166Y-109446707D01*
X118358737Y-109410422D01*
X118431309Y-109410422D01*
X118540166Y-109446707D01*
X118975594Y-109882136D01*
X118975594Y-109410422D01*
X118903023Y-109083850D02*
X118939309Y-109047565D01*
X118975594Y-109083850D01*
X118939309Y-109120136D01*
X118903023Y-109083850D01*
X118975594Y-109083850D01*
X118975594Y-108321851D02*
X118975594Y-108757279D01*
X118975594Y-108539565D02*
X118213594Y-108539565D01*
X118322451Y-108612136D01*
X118395023Y-108684708D01*
X118431309Y-108757279D01*
X118975594Y-108067851D02*
X118467594Y-107668708D01*
X118467594Y-108067851D02*
X118975594Y-107668708D01*
X118213594Y-107015565D02*
X118213594Y-107378422D01*
X118576451Y-107414708D01*
X118540166Y-107378422D01*
X118503880Y-107305851D01*
X118503880Y-107124422D01*
X118540166Y-107051851D01*
X118576451Y-107015565D01*
X118649023Y-106979280D01*
X118830451Y-106979280D01*
X118903023Y-107015565D01*
X118939309Y-107051851D01*
X118975594Y-107124422D01*
X118975594Y-107305851D01*
X118939309Y-107378422D01*
X118903023Y-107414708D01*
X118903023Y-106652708D02*
X118939309Y-106616423D01*
X118975594Y-106652708D01*
X118939309Y-106688994D01*
X118903023Y-106652708D01*
X118975594Y-106652708D01*
X118213594Y-105926994D02*
X118213594Y-106289851D01*
X118576451Y-106326137D01*
X118540166Y-106289851D01*
X118503880Y-106217280D01*
X118503880Y-106035851D01*
X118540166Y-105963280D01*
X118576451Y-105926994D01*
X118649023Y-105890709D01*
X118830451Y-105890709D01*
X118903023Y-105926994D01*
X118939309Y-105963280D01*
X118975594Y-106035851D01*
X118975594Y-106217280D01*
X118939309Y-106289851D01*
X118903023Y-106326137D01*
X118975594Y-105564137D02*
X118467594Y-105564137D01*
X118540166Y-105564137D02*
X118503880Y-105527852D01*
X118467594Y-105455280D01*
X118467594Y-105346423D01*
X118503880Y-105273852D01*
X118576451Y-105237566D01*
X118975594Y-105237566D01*
X118576451Y-105237566D02*
X118503880Y-105201280D01*
X118467594Y-105128709D01*
X118467594Y-105019852D01*
X118503880Y-104947280D01*
X118576451Y-104910995D01*
X118975594Y-104910995D01*
X118975594Y-104548137D02*
X118467594Y-104548137D01*
X118540166Y-104548137D02*
X118503880Y-104511852D01*
X118467594Y-104439280D01*
X118467594Y-104330423D01*
X118503880Y-104257852D01*
X118576451Y-104221566D01*
X118975594Y-104221566D01*
X118576451Y-104221566D02*
X118503880Y-104185280D01*
X118467594Y-104112709D01*
X118467594Y-104003852D01*
X118503880Y-103931280D01*
X118576451Y-103894995D01*
X118975594Y-103894995D01*
M02*
