G04 #@! TF.FileFunction,Copper,L1,Top,Signal*
%FSLAX46Y46*%
G04 Gerber Fmt 4.6, Leading zero omitted, Abs format (unit mm)*
G04 Created by KiCad (PCBNEW 4.0.2+dfsg1-stable) date Seg 06 Nov 2017 17:19:15 BRT*
%MOMM*%
G01*
G04 APERTURE LIST*
%ADD10C,0.100000*%
%ADD11R,2.999740X1.600200*%
%ADD12R,2.000000X1.600000*%
%ADD13R,1.500000X1.300000*%
%ADD14R,2.000000X2.000000*%
%ADD15R,1.676400X1.676400*%
%ADD16C,1.676400*%
%ADD17O,1.998980X1.998980*%
%ADD18R,1.998980X1.998980*%
%ADD19R,1.300000X1.500000*%
%ADD20R,1.397000X1.397000*%
%ADD21C,1.397000*%
%ADD22C,2.000000*%
%ADD23R,3.800000X2.000000*%
%ADD24R,1.500000X2.000000*%
%ADD25R,2.500000X1.100000*%
%ADD26O,2.500000X1.100000*%
%ADD27O,1.100000X2.400000*%
%ADD28O,2.499360X1.998980*%
%ADD29R,1.727200X2.032000*%
%ADD30O,1.727200X2.032000*%
%ADD31R,1.220000X0.910000*%
%ADD32C,2.340000*%
%ADD33R,4.064000X4.064000*%
%ADD34C,4.064000*%
%ADD35R,2.032000X1.727200*%
%ADD36O,2.032000X1.727200*%
%ADD37C,0.685800*%
%ADD38C,0.203200*%
G04 APERTURE END LIST*
D10*
D11*
X106095800Y-97388680D03*
X110495080Y-97388680D03*
X125547120Y-93802200D03*
X129946400Y-93802200D03*
D12*
X85451700Y-82308700D03*
X81451700Y-82308700D03*
X85451700Y-77302360D03*
X81451700Y-77302360D03*
D11*
X125567440Y-86222840D03*
X129966720Y-86222840D03*
X110744000Y-86263480D03*
X106344720Y-86263480D03*
D13*
X89348300Y-91567000D03*
X86648300Y-91567000D03*
D14*
X129747700Y-99034600D03*
X125547700Y-99034600D03*
D15*
X69583300Y-101092000D03*
D16*
X69583300Y-98552000D03*
X69583300Y-96012000D03*
X69583300Y-93472000D03*
X69583300Y-90932000D03*
X69583300Y-88392000D03*
X69583300Y-85852000D03*
X69583300Y-83312000D03*
X69583300Y-80772000D03*
X69583300Y-78232000D03*
X69583300Y-75692000D03*
X69583300Y-73152000D03*
X69583300Y-70612000D03*
X69583300Y-68072000D03*
X61963300Y-68072000D03*
X61963300Y-70612000D03*
X61963300Y-73152000D03*
X61963300Y-75692000D03*
X61963300Y-78232000D03*
X61963300Y-80772000D03*
X61963300Y-83312000D03*
X61963300Y-85852000D03*
X61963300Y-88392000D03*
X61963300Y-90932000D03*
X61963300Y-93472000D03*
X61963300Y-96012000D03*
X61963300Y-98552000D03*
X61963300Y-101092000D03*
D17*
X55486300Y-88404700D03*
D18*
X55486300Y-90944700D03*
D17*
X55486300Y-98526600D03*
D18*
X55486300Y-101066600D03*
D17*
X76403200Y-91084400D03*
D18*
X76403200Y-96164400D03*
D17*
X76403200Y-93624400D03*
D19*
X102920800Y-111713000D03*
X102920800Y-109013000D03*
D13*
X94720400Y-91567000D03*
X92020400Y-91567000D03*
D19*
X102905560Y-105733840D03*
X102905560Y-103033840D03*
D13*
X79146400Y-100520500D03*
X76446400Y-100520500D03*
X76462900Y-103009700D03*
X79162900Y-103009700D03*
D19*
X50609500Y-88290400D03*
X50609500Y-85590400D03*
D13*
X56219100Y-106794300D03*
X58919100Y-106794300D03*
D19*
X50659500Y-90563700D03*
X50659500Y-93263700D03*
X82219800Y-93733600D03*
X82219800Y-91033600D03*
X50609500Y-98559600D03*
X50609500Y-95859600D03*
X50674800Y-101028500D03*
X50674800Y-103728500D03*
D20*
X79222600Y-106121200D03*
D21*
X76682600Y-106121200D03*
X74142600Y-106121200D03*
D22*
X108047400Y-104965500D03*
X112547400Y-104965500D03*
X108047400Y-111465500D03*
X112547400Y-111465500D03*
X63057900Y-111294300D03*
X63057900Y-106794300D03*
X69557900Y-111294300D03*
X69557900Y-106794300D03*
D23*
X117897880Y-92714280D03*
D24*
X117897880Y-99014280D03*
X120197880Y-99014280D03*
X115597880Y-99014280D03*
D25*
X98591600Y-112534700D03*
D26*
X98591600Y-110534700D03*
X98591600Y-108534700D03*
X98591600Y-106534700D03*
X98591600Y-104534700D03*
X98591600Y-102534700D03*
X98591600Y-100534700D03*
X98591600Y-98534700D03*
X83191600Y-98534700D03*
X83291600Y-100534700D03*
X83191600Y-102534700D03*
X83191600Y-104534700D03*
X83191600Y-106534700D03*
X83191600Y-108534700D03*
X83191600Y-110534700D03*
X83191600Y-112534700D03*
D27*
X95901600Y-96784700D03*
X93901600Y-96784700D03*
X91901600Y-96784700D03*
X89901600Y-96784700D03*
X87901600Y-96784700D03*
X85901600Y-96784700D03*
D23*
X117901720Y-79974040D03*
D24*
X117901720Y-86274040D03*
X120201720Y-86274040D03*
X115601720Y-86274040D03*
D28*
X76581000Y-82285840D03*
X76581000Y-77403960D03*
D29*
X75966320Y-68798440D03*
D30*
X78506320Y-68798440D03*
X81046320Y-68798440D03*
X83586320Y-68798440D03*
X86126320Y-68798440D03*
X88666320Y-68798440D03*
X91206320Y-68798440D03*
X93746320Y-68798440D03*
X96286320Y-68798440D03*
X98826320Y-68798440D03*
X101366320Y-68798440D03*
X103906320Y-68798440D03*
X106446320Y-68798440D03*
X108986320Y-68798440D03*
X111526320Y-68798440D03*
X114066320Y-68798440D03*
D17*
X55486300Y-80772000D03*
D18*
X55486300Y-83312000D03*
D31*
X46929040Y-84141560D03*
X46929040Y-87411560D03*
X47035720Y-89810840D03*
X47035720Y-93080840D03*
X46984920Y-95221040D03*
X46984920Y-98491040D03*
X46984920Y-100783640D03*
X46984920Y-104053640D03*
D32*
X138008360Y-78884800D03*
X123008360Y-73884800D03*
X138008360Y-68884800D03*
D33*
X123880880Y-104602280D03*
D34*
X123880880Y-110571280D03*
X128579880Y-107650280D03*
D12*
X75099160Y-111079280D03*
X79099160Y-111079280D03*
D35*
X135194040Y-111287560D03*
D36*
X135194040Y-108747560D03*
X135194040Y-106207560D03*
X135194040Y-103667560D03*
X135194040Y-101127560D03*
X135194040Y-98587560D03*
D20*
X94660720Y-85791040D03*
D21*
X97200720Y-85791040D03*
X99740720Y-85791040D03*
D37*
X85069680Y-91567000D03*
X74488040Y-99044760D03*
X81031080Y-96707960D03*
X80030320Y-112847120D03*
X96260920Y-91556840D03*
X103657400Y-85862160D03*
X113400840Y-99671361D03*
X139136120Y-66730880D03*
X132796280Y-88082120D03*
X87889080Y-82179160D03*
X87884000Y-77317600D03*
X86095840Y-66845200D03*
X113248440Y-98171000D03*
X50698400Y-105653840D03*
X52679600Y-93715840D03*
X52669440Y-95377000D03*
X113588800Y-84947760D03*
X114005360Y-66695320D03*
X132775960Y-93822520D03*
X71389240Y-83906360D03*
X71302880Y-71226680D03*
X72151240Y-87711280D03*
X72156320Y-91064080D03*
X66141600Y-71272400D03*
X48849280Y-89804240D03*
X59400440Y-66390520D03*
X45953680Y-94228920D03*
X122727720Y-74391520D03*
X65562480Y-68719720D03*
X66527680Y-90835480D03*
X65949390Y-69778804D03*
X67548760Y-66395600D03*
X67518280Y-93472000D03*
X87015320Y-102773480D03*
D38*
X106095800Y-97388680D02*
X104392730Y-97388680D01*
X104392730Y-97388680D02*
X99525851Y-92521801D01*
X99525851Y-92521801D02*
X87703101Y-92521801D01*
X87703101Y-92521801D02*
X86748300Y-91567000D01*
X86748300Y-91567000D02*
X86648300Y-91567000D01*
X106095800Y-97388680D02*
X106095800Y-98391980D01*
X106095800Y-98391980D02*
X108022901Y-100319081D01*
X108022901Y-100319081D02*
X116843079Y-100319081D01*
X116843079Y-100319081D02*
X117897880Y-99264280D01*
X117897880Y-99264280D02*
X117897880Y-99014280D01*
X86648300Y-91567000D02*
X85069680Y-91567000D01*
X86548300Y-91567000D02*
X86648300Y-91567000D01*
X76446400Y-100520500D02*
X76346400Y-100520500D01*
X76346400Y-100520500D02*
X74870660Y-99044760D01*
X74870660Y-99044760D02*
X74488040Y-99044760D01*
X76446400Y-96207600D02*
X76403200Y-96164400D01*
X83891600Y-98534700D02*
X82857820Y-98534700D01*
X82857820Y-98534700D02*
X81031080Y-96707960D01*
X79099160Y-111079280D02*
X79299160Y-111079280D01*
X79299160Y-111079280D02*
X80030320Y-111810440D01*
X80030320Y-111810440D02*
X80030320Y-112847120D01*
X94720400Y-91567000D02*
X96250760Y-91567000D01*
X96250760Y-91567000D02*
X96260920Y-91556840D01*
X106344720Y-86263480D02*
X104058720Y-86263480D01*
X104058720Y-86263480D02*
X103657400Y-85862160D01*
X113743739Y-99328462D02*
X113400840Y-99671361D01*
X115597880Y-99014280D02*
X114057921Y-99014280D01*
X114057921Y-99014280D02*
X113743739Y-99328462D01*
X123880880Y-104602280D02*
X123880880Y-110571280D01*
X138008360Y-68884800D02*
X139178359Y-67714801D01*
X139178359Y-67714801D02*
X139178359Y-66773119D01*
X139178359Y-66773119D02*
X139136120Y-66730880D01*
X69583300Y-83312000D02*
X64503300Y-83312000D01*
X64503300Y-83312000D02*
X61963300Y-85852000D01*
X61963300Y-85852000D02*
X50871100Y-85852000D01*
X50871100Y-85852000D02*
X50609500Y-85590400D01*
X76446400Y-100520500D02*
X76546400Y-100520500D01*
X129966720Y-86222840D02*
X130666490Y-86222840D01*
X130666490Y-86222840D02*
X132525770Y-88082120D01*
X132525770Y-88082120D02*
X132796280Y-88082120D01*
X85451700Y-82308700D02*
X87759540Y-82308700D01*
X87759540Y-82308700D02*
X87889080Y-82179160D01*
X85451700Y-77302360D02*
X87868760Y-77302360D01*
X87868760Y-77302360D02*
X87884000Y-77317600D01*
X86126320Y-68798440D02*
X86126320Y-66875680D01*
X86126320Y-66875680D02*
X86095840Y-66845200D01*
X110495080Y-97388680D02*
X112466120Y-97388680D01*
X112466120Y-97388680D02*
X113248440Y-98171000D01*
X50674800Y-103728500D02*
X50674800Y-105630240D01*
X50674800Y-105630240D02*
X50698400Y-105653840D01*
X50659500Y-93263700D02*
X52227460Y-93263700D01*
X52227460Y-93263700D02*
X52679600Y-93715840D01*
X50609500Y-95859600D02*
X52186840Y-95859600D01*
X52186840Y-95859600D02*
X52669440Y-95377000D01*
X50609500Y-85590400D02*
X50609500Y-85490400D01*
X115601720Y-86274040D02*
X114648520Y-86274040D01*
X114648520Y-86274040D02*
X113588800Y-85214320D01*
X113588800Y-85214320D02*
X113588800Y-84947760D01*
X114066320Y-68798440D02*
X114066320Y-66756280D01*
X114066320Y-66756280D02*
X114005360Y-66695320D01*
X129946400Y-93802200D02*
X132755640Y-93802200D01*
X132755640Y-93802200D02*
X132775960Y-93822520D01*
X120201720Y-86274040D02*
X125516240Y-86274040D01*
X125516240Y-86274040D02*
X125567440Y-86222840D01*
X125567440Y-86222840D02*
X125567440Y-93781880D01*
X125567440Y-93781880D02*
X125547120Y-93802200D01*
X125547700Y-99034600D02*
X125547700Y-93802780D01*
X125547700Y-93802780D02*
X125547120Y-93802200D01*
X125547700Y-99034600D02*
X120218200Y-99034600D01*
X120218200Y-99034600D02*
X120197880Y-99014280D01*
X76581000Y-82285840D02*
X71097140Y-82285840D01*
X71097140Y-82285840D02*
X69583300Y-80772000D01*
X76581000Y-82285840D02*
X81428840Y-82285840D01*
X81428840Y-82285840D02*
X81451700Y-82308700D01*
X69583300Y-78232000D02*
X75752960Y-78232000D01*
X75752960Y-78232000D02*
X76581000Y-77403960D01*
X76581000Y-77403960D02*
X81350100Y-77403960D01*
X81350100Y-77403960D02*
X81451700Y-77302360D01*
X117901720Y-86274040D02*
X117901720Y-86024040D01*
X117901720Y-86024040D02*
X125040960Y-78884800D01*
X125040960Y-78884800D02*
X136353731Y-78884800D01*
X136353731Y-78884800D02*
X138008360Y-78884800D01*
X71389240Y-83906360D02*
X69583300Y-85712300D01*
X69583300Y-85712300D02*
X69583300Y-85852000D01*
X78506320Y-68798440D02*
X78506320Y-70017640D01*
X78506320Y-70017640D02*
X77297280Y-71226680D01*
X77297280Y-71226680D02*
X71302880Y-71226680D01*
X65664080Y-100172520D02*
X65664080Y-89771220D01*
X65664080Y-89771220D02*
X69451220Y-85984080D01*
X62057280Y-103779320D02*
X65664080Y-100172520D01*
X59334080Y-103779320D02*
X62057280Y-103779320D01*
X56219100Y-106794300D02*
X56319100Y-106794300D01*
X56319100Y-106794300D02*
X59334080Y-103779320D01*
X72151240Y-87711280D02*
X70291960Y-85852000D01*
X70291960Y-85852000D02*
X69583300Y-85852000D01*
X76403200Y-91084400D02*
X72176640Y-91084400D01*
X72176640Y-91084400D02*
X72156320Y-91064080D01*
X83855320Y-90251280D02*
X106056430Y-90251280D01*
X106056430Y-90251280D02*
X110044230Y-86263480D01*
X110044230Y-86263480D02*
X110744000Y-86263480D01*
X82219800Y-91033600D02*
X83073000Y-91033600D01*
X83073000Y-91033600D02*
X83855320Y-90251280D01*
X137149520Y-79397880D02*
X138602720Y-79397880D01*
X110744000Y-86263480D02*
X110744000Y-69580760D01*
X110744000Y-69580760D02*
X111526320Y-68798440D01*
X117901720Y-86274040D02*
X117901720Y-87477240D01*
X117901720Y-87477240D02*
X117800119Y-87578841D01*
X117800119Y-87578841D02*
X113762431Y-87578841D01*
X113762431Y-87578841D02*
X112447070Y-86263480D01*
X112447070Y-86263480D02*
X110744000Y-86263480D01*
X82219800Y-91033600D02*
X76454000Y-91033600D01*
X76454000Y-91033600D02*
X76403200Y-91084400D01*
X89348300Y-91567000D02*
X92020400Y-91567000D01*
X128579880Y-107650280D02*
X128579880Y-100202420D01*
X128579880Y-100202420D02*
X129747700Y-99034600D01*
X129775800Y-99062700D02*
X129747700Y-99034600D01*
X46929040Y-84141560D02*
X47084040Y-84141560D01*
X68745101Y-73990199D02*
X69583300Y-73152000D01*
X47084040Y-84141560D02*
X56930599Y-74295001D01*
X56930599Y-74295001D02*
X68440299Y-74295001D01*
X68440299Y-74295001D02*
X68745101Y-73990199D01*
X50609500Y-88290400D02*
X47149680Y-88290400D01*
X47149680Y-88290400D02*
X46929040Y-88069760D01*
X46929040Y-88069760D02*
X46929040Y-87411560D01*
X50404500Y-88495400D02*
X50609500Y-88290400D01*
X50609500Y-88290400D02*
X55372000Y-88290400D01*
X55372000Y-88290400D02*
X55486300Y-88404700D01*
X55486300Y-88404700D02*
X61950600Y-88404700D01*
X61950600Y-88404700D02*
X61963300Y-88392000D01*
X66141600Y-71272400D02*
X66802000Y-70612000D01*
X66802000Y-70612000D02*
X69583300Y-70612000D01*
X47035720Y-89810840D02*
X48842680Y-89810840D01*
X48842680Y-89810840D02*
X48849280Y-89804240D01*
X47035720Y-93080840D02*
X48242360Y-93080840D01*
X48242360Y-93080840D02*
X50659500Y-90663700D01*
X50659500Y-90663700D02*
X50659500Y-90563700D01*
X50659500Y-90563700D02*
X55105300Y-90563700D01*
X55105300Y-90563700D02*
X55486300Y-90944700D01*
X61963300Y-90932000D02*
X55499000Y-90932000D01*
X55499000Y-90932000D02*
X55486300Y-90944700D01*
X68397907Y-68072000D02*
X69583300Y-68072000D01*
X59400440Y-66390520D02*
X61973462Y-66390520D01*
X63654942Y-68072000D02*
X68397907Y-68072000D01*
X61973462Y-66390520D02*
X63654942Y-68072000D01*
X46984920Y-95221040D02*
X46945800Y-95221040D01*
X46945800Y-95221040D02*
X45953680Y-94228920D01*
X50674800Y-101028500D02*
X50674800Y-101128500D01*
X50674800Y-101128500D02*
X47749660Y-104053640D01*
X47749660Y-104053640D02*
X46984920Y-104053640D01*
X55486300Y-101066600D02*
X59448700Y-101066600D01*
X59448700Y-101066600D02*
X61963300Y-98552000D01*
X61937900Y-98526600D02*
X61963300Y-98552000D01*
X50637600Y-101065700D02*
X50674800Y-101028500D01*
X50674800Y-101028500D02*
X55448200Y-101028500D01*
X55448200Y-101028500D02*
X55486300Y-101066600D01*
X55422800Y-101003100D02*
X55486300Y-101066600D01*
X55511700Y-101092000D02*
X55486300Y-101066600D01*
X45217080Y-83632827D02*
X45217080Y-98357600D01*
X45217080Y-98357600D02*
X46984920Y-100125440D01*
X46984920Y-100125440D02*
X46984920Y-100783640D01*
X61963300Y-68072000D02*
X60777907Y-68072000D01*
X60777907Y-68072000D02*
X45217080Y-83632827D01*
X81005680Y-68839080D02*
X81046320Y-68798440D01*
X122734080Y-74397880D02*
X122727720Y-74391520D01*
X106446320Y-68798440D02*
X106446320Y-68950840D01*
X106446320Y-68950840D02*
X85617051Y-89780109D01*
X85617051Y-89780109D02*
X70735191Y-89780109D01*
X70735191Y-89780109D02*
X70421499Y-90093801D01*
X70421499Y-90093801D02*
X69583300Y-90932000D01*
X103906320Y-68798440D02*
X103906320Y-70017640D01*
X103906320Y-70017640D02*
X85531960Y-88392000D01*
X85531960Y-88392000D02*
X70768693Y-88392000D01*
X70768693Y-88392000D02*
X69583300Y-88392000D01*
X65219581Y-69062619D02*
X65562480Y-68719720D01*
X63670200Y-70612000D02*
X65219581Y-69062619D01*
X61963300Y-70612000D02*
X63670200Y-70612000D01*
X76403200Y-93624400D02*
X75107799Y-92328999D01*
X75107799Y-92328999D02*
X68021199Y-92328999D01*
X68021199Y-92328999D02*
X66527680Y-90835480D01*
X82219800Y-93733600D02*
X76512400Y-93733600D01*
X76512400Y-93733600D02*
X76403200Y-93624400D01*
X76250800Y-93472000D02*
X76403200Y-93624400D01*
X66432657Y-73152000D02*
X63148693Y-73152000D01*
X88666320Y-68950840D02*
X85608161Y-72008999D01*
X67575658Y-72008999D02*
X66432657Y-73152000D01*
X88666320Y-68798440D02*
X88666320Y-68950840D01*
X63148693Y-73152000D02*
X61963300Y-73152000D01*
X85608161Y-72008999D02*
X67575658Y-72008999D01*
X66292289Y-69435905D02*
X65949390Y-69778804D01*
X66512009Y-69216185D02*
X66292289Y-69435905D01*
X70130757Y-69216185D02*
X66512009Y-69216185D01*
X71869312Y-67477630D02*
X70130757Y-69216185D01*
X82417910Y-67477630D02*
X71869312Y-67477630D01*
X83586320Y-68646040D02*
X82417910Y-67477630D01*
X83586320Y-68798440D02*
X83586320Y-68646040D01*
X63057900Y-106794300D02*
X58919100Y-106794300D01*
X69583300Y-101092000D02*
X69583300Y-106768900D01*
X69583300Y-106768900D02*
X69557900Y-106794300D01*
X67548760Y-66395600D02*
X67891659Y-66052701D01*
X67891659Y-66052701D02*
X106392981Y-66052701D01*
X106392981Y-66052701D02*
X108986320Y-68646040D01*
X108986320Y-68646040D02*
X108986320Y-68798440D01*
X69583300Y-93472000D02*
X67518280Y-93472000D01*
X101366320Y-68798440D02*
X101366320Y-70017640D01*
X101366320Y-70017640D02*
X95691960Y-75692000D01*
X95691960Y-75692000D02*
X70768693Y-75692000D01*
X70768693Y-75692000D02*
X69583300Y-75692000D01*
X69623940Y-75651360D02*
X69583300Y-75692000D01*
X102920800Y-111713000D02*
X102067600Y-111713000D01*
X102067600Y-111713000D02*
X101245900Y-112534700D01*
X101245900Y-112534700D02*
X97891600Y-112534700D01*
X102905560Y-105733840D02*
X102905560Y-105833840D01*
X102905560Y-105833840D02*
X100204700Y-108534700D01*
X100204700Y-108534700D02*
X97891600Y-108534700D01*
X79146400Y-100520500D02*
X83877400Y-100520500D01*
X83877400Y-100520500D02*
X83891600Y-100534700D01*
X79162900Y-103009700D02*
X83416600Y-103009700D01*
X83416600Y-103009700D02*
X83891600Y-102534700D01*
X79222600Y-106121200D02*
X80124300Y-106121200D01*
X80124300Y-106121200D02*
X81710800Y-104534700D01*
X81710800Y-104534700D02*
X83891600Y-104534700D01*
X55486300Y-80772000D02*
X61963300Y-80772000D01*
X61963300Y-83312000D02*
X60777907Y-83312000D01*
X60777907Y-83312000D02*
X55486300Y-83312000D01*
X46984920Y-98491040D02*
X50540940Y-98491040D01*
X50540940Y-98491040D02*
X50609500Y-98559600D01*
X61963300Y-96012000D02*
X58000900Y-96012000D01*
X58000900Y-96012000D02*
X55486300Y-98526600D01*
X50566300Y-98602800D02*
X50609500Y-98559600D01*
X50609500Y-98559600D02*
X55453300Y-98559600D01*
X55453300Y-98559600D02*
X55486300Y-98526600D01*
X55478700Y-98534200D02*
X55486300Y-98526600D01*
X75509700Y-103009700D02*
X76462900Y-103009700D01*
X74553060Y-103009700D02*
X75509700Y-103009700D01*
X73139299Y-104423461D02*
X74553060Y-103009700D01*
X73139299Y-108116219D02*
X73139299Y-104423461D01*
X75099160Y-110076080D02*
X73139299Y-108116219D01*
X75099160Y-111079280D02*
X75099160Y-110076080D01*
X76462900Y-103009700D02*
X76562900Y-103009700D01*
X76562900Y-103009700D02*
X78097299Y-101475301D01*
X78097299Y-101475301D02*
X94950999Y-101475301D01*
X94950999Y-101475301D02*
X97891600Y-98534700D01*
X76462900Y-103009700D02*
X76462900Y-102485642D01*
X102905560Y-103033840D02*
X102905560Y-102933840D01*
X102905560Y-102933840D02*
X98506420Y-98534700D01*
X98506420Y-98534700D02*
X97891600Y-98534700D01*
X108047400Y-104965500D02*
X106115740Y-103033840D01*
X106115740Y-103033840D02*
X102905560Y-103033840D01*
X108047400Y-111465500D02*
X105594900Y-109013000D01*
X105594900Y-109013000D02*
X102920800Y-109013000D01*
X97891600Y-106534700D02*
X90776540Y-106534700D01*
X90776540Y-106534700D02*
X87015320Y-102773480D01*
M02*
