M48
;DRILL file {KiCad 4.0.2+dfsg1-stable} date Seg 06 Nov 2017 17:19:20 BRT
;FORMAT={-:-/ absolute / inch / decimal}
FMAT,2
INCH,TZ
T1C0.013
T2C0.026
T3C0.032
T4C0.040
T5C0.043
T6C0.043
T7C0.044
T8C0.047
T9C0.051
T10C0.108
%
G90
G05
M72
T1
X1.8092Y-3.7098
X1.9232Y-3.5356
X1.996Y-4.1596
X2.0736Y-3.755
X2.074Y-3.6896
X2.3386Y-2.6138
X2.5812Y-2.7055
X2.5964Y-2.7472
X2.604Y-2.806
X2.6192Y-3.5762
X2.6582Y-3.68
X2.6594Y-2.614
X2.8072Y-2.8042
X2.8106Y-3.3034
X2.8406Y-3.4532
X2.8408Y-3.5852
X2.9326Y-3.8994
X3.1508Y-4.4428
X3.1902Y-3.8074
X3.3492Y-3.605
X3.3896Y-2.6317
X3.4258Y-4.0462
X3.46Y-3.044
X3.4602Y-3.2354
X3.7898Y-3.6046
X4.081Y-3.3804
X4.4586Y-3.865
X4.4646Y-3.9241
X4.472Y-3.3444
X4.4884Y-2.6258
X4.8318Y-2.9288
X5.2274Y-3.6938
X5.2282Y-3.4678
X5.4778Y-2.6272
T2
X3.3028Y-3.8793
X3.3028Y-3.9581
X3.3028Y-4.0368
X3.3028Y-4.1155
X3.3028Y-4.1943
X3.3028Y-4.273
X3.3028Y-4.3518
X3.3028Y-4.4305
X3.854Y-3.8793
X3.854Y-3.9581
X3.854Y-4.0368
X3.854Y-4.1155
X3.854Y-4.1943
X3.854Y-4.273
X3.854Y-4.3518
X3.854Y-4.4305
T3
X2.919Y-4.178
X3.019Y-4.178
X3.119Y-4.178
X3.7268Y-3.3776
X3.8268Y-3.3776
X3.9268Y-3.3776
T4
X2.9908Y-2.7086
X3.0908Y-2.7086
X3.1908Y-2.7086
X3.2908Y-2.7086
X3.3908Y-2.7086
X3.4908Y-2.7086
X3.5908Y-2.7086
X3.6908Y-2.7086
X3.7908Y-2.7086
X3.8908Y-2.7086
X3.9908Y-2.7086
X4.0908Y-2.7086
X4.1908Y-2.7086
X4.2908Y-2.7086
X4.3908Y-2.7086
X4.4908Y-2.7086
X5.3226Y-3.8814
X5.3226Y-3.9814
X5.3226Y-4.0814
X5.3226Y-4.1814
X5.3226Y-4.2814
X5.3226Y-4.3814
T5
X2.1845Y-3.18
X2.1845Y-3.28
X2.1845Y-3.4805
X2.1845Y-3.5805
X2.1845Y-3.879
X2.1845Y-3.979
X3.008Y-3.586
X3.008Y-3.686
X3.008Y-3.786
T6
X2.4826Y-4.2045
X2.4826Y-4.3817
X2.7385Y-4.2045
X2.7385Y-4.3817
X4.2538Y-4.1325
X4.2538Y-4.3884
X4.431Y-4.1325
X4.431Y-4.3884
T7
X2.4395Y-2.68
X2.4395Y-2.78
X2.4395Y-2.88
X2.4395Y-2.98
X2.4395Y-3.08
X2.4395Y-3.18
X2.4395Y-3.28
X2.4395Y-3.38
X2.4395Y-3.48
X2.4395Y-3.58
X2.4395Y-3.68
X2.4395Y-3.78
X2.4395Y-3.88
X2.4395Y-3.98
X2.7395Y-2.68
X2.7395Y-2.78
X2.7395Y-2.88
X2.7395Y-2.98
X2.7395Y-3.08
X2.7395Y-3.18
X2.7395Y-3.28
X2.7395Y-3.38
X2.7395Y-3.48
X2.7395Y-3.58
X2.7395Y-3.68
X2.7395Y-3.78
X2.7395Y-3.88
X2.7395Y-3.98
T8
X3.015Y-3.0474
X3.015Y-3.2396
T9
X4.8428Y-2.9089
X5.4334Y-2.712
X5.4334Y-3.1057
T10
X4.8772Y-4.1182
X4.8772Y-4.3532
X5.0622Y-4.2382
T0
M30
