G04 #@! TF.FileFunction,Copper,L2,Bot,Signal*
%FSLAX46Y46*%
G04 Gerber Fmt 4.6, Leading zero omitted, Abs format (unit mm)*
G04 Created by KiCad (PCBNEW 4.0.2+dfsg1-stable) date Qui 19 Out 2017 15:04:08 BRT*
%MOMM*%
G01*
G04 APERTURE LIST*
%ADD10C,0.100000*%
%ADD11R,1.676400X1.676400*%
%ADD12C,1.676400*%
%ADD13O,1.998980X1.998980*%
%ADD14R,1.998980X1.998980*%
%ADD15R,1.397000X1.397000*%
%ADD16C,1.397000*%
%ADD17C,2.000000*%
%ADD18R,2.500000X1.100000*%
%ADD19O,2.500000X1.100000*%
%ADD20O,2.499360X1.998980*%
%ADD21R,1.727200X2.032000*%
%ADD22O,1.727200X2.032000*%
%ADD23C,2.340000*%
%ADD24R,4.064000X4.064000*%
%ADD25C,4.064000*%
%ADD26C,0.685800*%
%ADD27C,0.203200*%
%ADD28C,0.254000*%
G04 APERTURE END LIST*
D10*
D11*
X69583300Y-101092000D03*
D12*
X69583300Y-98552000D03*
X69583300Y-96012000D03*
X69583300Y-93472000D03*
X69583300Y-90932000D03*
X69583300Y-88392000D03*
X69583300Y-85852000D03*
X69583300Y-83312000D03*
X69583300Y-80772000D03*
X69583300Y-78232000D03*
X69583300Y-75692000D03*
X69583300Y-73152000D03*
X69583300Y-70612000D03*
X69583300Y-68072000D03*
X61963300Y-68072000D03*
X61963300Y-70612000D03*
X61963300Y-73152000D03*
X61963300Y-75692000D03*
X61963300Y-78232000D03*
X61963300Y-80772000D03*
X61963300Y-83312000D03*
X61963300Y-85852000D03*
X61963300Y-88392000D03*
X61963300Y-90932000D03*
X61963300Y-93472000D03*
X61963300Y-96012000D03*
X61963300Y-98552000D03*
X61963300Y-101092000D03*
D13*
X55486300Y-88404700D03*
D14*
X55486300Y-90944700D03*
D13*
X55486300Y-98526600D03*
D14*
X55486300Y-101066600D03*
D13*
X76403200Y-91084400D03*
D14*
X76403200Y-96164400D03*
D13*
X76403200Y-93624400D03*
D15*
X79222600Y-106121200D03*
D16*
X76682600Y-106121200D03*
X74142600Y-106121200D03*
D17*
X108047400Y-104965500D03*
X112547400Y-104965500D03*
X108047400Y-111465500D03*
X112547400Y-111465500D03*
X63057900Y-111294300D03*
X63057900Y-106794300D03*
X69557900Y-111294300D03*
X69557900Y-106794300D03*
D18*
X98591600Y-112534700D03*
D19*
X98591600Y-110534700D03*
X98591600Y-108534700D03*
X98591600Y-106534700D03*
X98591600Y-104534700D03*
X98591600Y-102534700D03*
X98591600Y-100534700D03*
X98591600Y-98534700D03*
X83191600Y-98534700D03*
X83291600Y-100534700D03*
X83191600Y-102534700D03*
X83191600Y-104534700D03*
X83191600Y-106534700D03*
X83191600Y-108534700D03*
X83191600Y-110534700D03*
X83191600Y-112534700D03*
D20*
X76581000Y-82285840D03*
X76581000Y-77403960D03*
D21*
X75966320Y-68798440D03*
D22*
X78506320Y-68798440D03*
X81046320Y-68798440D03*
X83586320Y-68798440D03*
X86126320Y-68798440D03*
X88666320Y-68798440D03*
X91206320Y-68798440D03*
X93746320Y-68798440D03*
X96286320Y-68798440D03*
X98826320Y-68798440D03*
X101366320Y-68798440D03*
X103906320Y-68798440D03*
X106446320Y-68798440D03*
X108986320Y-68798440D03*
X111526320Y-68798440D03*
X114066320Y-68798440D03*
D13*
X55486300Y-80772000D03*
D14*
X55486300Y-83312000D03*
D23*
X138008360Y-78884800D03*
X123008360Y-73884800D03*
X138008360Y-68884800D03*
D24*
X123880880Y-104602280D03*
D25*
X123880880Y-110571280D03*
X128579880Y-107650280D03*
D26*
X139136120Y-66730880D03*
X80655160Y-97378520D03*
X132796280Y-88082120D03*
X87889080Y-82179160D03*
X87884000Y-77317600D03*
X86095840Y-66845200D03*
X113248440Y-98171000D03*
X96626680Y-91587320D03*
X50698400Y-105653840D03*
X52679600Y-93715840D03*
X52669440Y-95377000D03*
X113588800Y-84947760D03*
X103662480Y-86349840D03*
X114005360Y-66695320D03*
X132775960Y-93822520D03*
X113400840Y-100975160D03*
X71389240Y-83906360D03*
X71302880Y-71226680D03*
X72151240Y-87711280D03*
X72156320Y-91064080D03*
X66141600Y-71272400D03*
X48849280Y-89804240D03*
X59400440Y-66390520D03*
X45953680Y-94228920D03*
X122727720Y-74391520D03*
X65562480Y-68719720D03*
X66527680Y-90835480D03*
X65949390Y-69778804D03*
X67548760Y-66395600D03*
X67518280Y-93472000D03*
D27*
X71302880Y-83820000D02*
X71389240Y-83906360D01*
X71302880Y-71226680D02*
X71302880Y-83820000D01*
X72156320Y-91064080D02*
X72156320Y-87716360D01*
X72156320Y-87716360D02*
X72151240Y-87711280D01*
X60820299Y-80525623D02*
X60820299Y-77683359D01*
X48849280Y-89804240D02*
X51541682Y-89804240D01*
X51541682Y-89804240D02*
X60820299Y-80525623D01*
X60820299Y-77683359D02*
X61668657Y-76835001D01*
X61668657Y-76835001D02*
X62511941Y-76835001D01*
X62511941Y-76835001D02*
X66141600Y-73205342D01*
X66141600Y-73205342D02*
X66141600Y-71272400D01*
X46878240Y-93304360D02*
X46878240Y-78912720D01*
X46878240Y-78912720D02*
X59400440Y-66390520D01*
X45953680Y-94228920D02*
X46878240Y-93304360D01*
X123008360Y-73884800D02*
X85980280Y-73884800D01*
X85980280Y-73884800D02*
X81046320Y-68950840D01*
X81046320Y-68950840D02*
X81046320Y-68798440D01*
X66870579Y-69542886D02*
X66047413Y-68719720D01*
X66870579Y-90492581D02*
X66870579Y-69542886D01*
X66047413Y-68719720D02*
X65562480Y-68719720D01*
X66527680Y-90835480D02*
X66870579Y-90492581D01*
X65606491Y-70121703D02*
X65949390Y-69778804D01*
X65493898Y-70234296D02*
X65606491Y-70121703D01*
X65493898Y-72161402D02*
X65493898Y-70234296D01*
X61963300Y-75692000D02*
X65493898Y-72161402D01*
X67891659Y-66738499D02*
X67548760Y-66395600D01*
X67518280Y-93472000D02*
X67970411Y-93019869D01*
X67970411Y-66817251D02*
X67891659Y-66738499D01*
X67970411Y-93019869D02*
X67970411Y-66817251D01*
D28*
G36*
X66571030Y-66200230D02*
X66570691Y-66589263D01*
X66719253Y-66948812D01*
X66994101Y-67224140D01*
X67233811Y-67323676D01*
X67233811Y-69105501D01*
X66540436Y-68412126D01*
X66540549Y-68282217D01*
X66391987Y-67922668D01*
X66117139Y-67647340D01*
X65757850Y-67498150D01*
X65368817Y-67497811D01*
X65009268Y-67646373D01*
X64733940Y-67921221D01*
X64584750Y-68280510D01*
X64584411Y-68669543D01*
X64732973Y-69029092D01*
X65007821Y-69304420D01*
X65075796Y-69332646D01*
X64971660Y-69583434D01*
X64971321Y-69972467D01*
X65119883Y-70332016D01*
X65212790Y-70425085D01*
X65212790Y-71400800D01*
X63436479Y-73177111D01*
X63436755Y-72860248D01*
X63212947Y-72318589D01*
X62798891Y-71903810D01*
X62746908Y-71882225D01*
X62796711Y-71861647D01*
X63211490Y-71447591D01*
X63436244Y-70906323D01*
X63436755Y-70320248D01*
X63212947Y-69778589D01*
X62798891Y-69363810D01*
X62746908Y-69342225D01*
X62796711Y-69321647D01*
X63211490Y-68907591D01*
X63436244Y-68366323D01*
X63436755Y-67780248D01*
X63212947Y-67238589D01*
X62798891Y-66823810D01*
X62257623Y-66599056D01*
X61671548Y-66598545D01*
X61129889Y-66822353D01*
X60715110Y-67236409D01*
X60490356Y-67777677D01*
X60489845Y-68363752D01*
X60713653Y-68905411D01*
X61127709Y-69320190D01*
X61179692Y-69341775D01*
X61129889Y-69362353D01*
X60715110Y-69776409D01*
X60490356Y-70317677D01*
X60489845Y-70903752D01*
X60713653Y-71445411D01*
X61127709Y-71860190D01*
X61179692Y-71881775D01*
X61129889Y-71902353D01*
X60715110Y-72316409D01*
X60490356Y-72857677D01*
X60489845Y-73443752D01*
X60713653Y-73985411D01*
X61127709Y-74400190D01*
X61179692Y-74421775D01*
X61129889Y-74442353D01*
X60715110Y-74856409D01*
X60490356Y-75397677D01*
X60489845Y-75983752D01*
X60713653Y-76525411D01*
X61127709Y-76940190D01*
X61179692Y-76961775D01*
X61129889Y-76982353D01*
X60715110Y-77396409D01*
X60490356Y-77937677D01*
X60489845Y-78523752D01*
X60713653Y-79065411D01*
X61127709Y-79480190D01*
X61179692Y-79501775D01*
X61129889Y-79522353D01*
X60715110Y-79936409D01*
X60490356Y-80477677D01*
X60489845Y-81063752D01*
X60713653Y-81605411D01*
X61127709Y-82020190D01*
X61179692Y-82041775D01*
X61129889Y-82062353D01*
X60715110Y-82476409D01*
X60490356Y-83017677D01*
X60489845Y-83603752D01*
X60713653Y-84145411D01*
X61127709Y-84560190D01*
X61181295Y-84582441D01*
X61107492Y-84816587D01*
X61963300Y-85672395D01*
X62819108Y-84816587D01*
X62745429Y-84582836D01*
X62796711Y-84561647D01*
X63211490Y-84147591D01*
X63436244Y-83606323D01*
X63436755Y-83020248D01*
X63212947Y-82478589D01*
X62798891Y-82063810D01*
X62746908Y-82042225D01*
X62796711Y-82021647D01*
X63211490Y-81607591D01*
X63436244Y-81066323D01*
X63436755Y-80480248D01*
X63212947Y-79938589D01*
X62798891Y-79523810D01*
X62746908Y-79502225D01*
X62796711Y-79481647D01*
X63211490Y-79067591D01*
X63436244Y-78526323D01*
X63436755Y-77940248D01*
X63212947Y-77398589D01*
X62798891Y-76983810D01*
X62746908Y-76962225D01*
X62796711Y-76941647D01*
X63211490Y-76527591D01*
X63436244Y-75986323D01*
X63436755Y-75400248D01*
X63395824Y-75301186D01*
X66133979Y-72563031D01*
X66133979Y-89940065D01*
X65974468Y-90005973D01*
X65699140Y-90280821D01*
X65549950Y-90640110D01*
X65549611Y-91029143D01*
X65698173Y-91388692D01*
X65973021Y-91664020D01*
X66332310Y-91813210D01*
X66721343Y-91813549D01*
X67080892Y-91664987D01*
X67233811Y-91512335D01*
X67233811Y-92531451D01*
X66965068Y-92642493D01*
X66689740Y-92917341D01*
X66540550Y-93276630D01*
X66540211Y-93665663D01*
X66688773Y-94025212D01*
X66963621Y-94300540D01*
X67322910Y-94449730D01*
X67711943Y-94450069D01*
X68071492Y-94301507D01*
X68255955Y-94117366D01*
X68333653Y-94305411D01*
X68747709Y-94720190D01*
X68799692Y-94741775D01*
X68749889Y-94762353D01*
X68335110Y-95176409D01*
X68110356Y-95717677D01*
X68109845Y-96303752D01*
X68333653Y-96845411D01*
X68747709Y-97260190D01*
X68799692Y-97281775D01*
X68749889Y-97302353D01*
X68335110Y-97716409D01*
X68110356Y-98257677D01*
X68109845Y-98843752D01*
X68333653Y-99385411D01*
X68584402Y-99636598D01*
X68509783Y-99650638D01*
X68293659Y-99789710D01*
X68148669Y-100001910D01*
X68097660Y-100253800D01*
X68097660Y-101930200D01*
X68141938Y-102165517D01*
X68281010Y-102381641D01*
X68493210Y-102526631D01*
X68745100Y-102577640D01*
X70421500Y-102577640D01*
X70656817Y-102533362D01*
X70872941Y-102394290D01*
X71017931Y-102182090D01*
X71068940Y-101930200D01*
X71068940Y-100253800D01*
X71024662Y-100018483D01*
X70885590Y-99802359D01*
X70673390Y-99657369D01*
X70580155Y-99638488D01*
X70831490Y-99387591D01*
X71056244Y-98846323D01*
X71056755Y-98260248D01*
X71042173Y-98224956D01*
X81347797Y-98224956D01*
X81473239Y-98407700D01*
X83064600Y-98407700D01*
X83064600Y-97349700D01*
X83318600Y-97349700D01*
X83318600Y-98407700D01*
X84909961Y-98407700D01*
X85035403Y-98224956D01*
X85034998Y-98198554D01*
X84819324Y-97786582D01*
X84462413Y-97488504D01*
X84018600Y-97349700D01*
X83318600Y-97349700D01*
X83064600Y-97349700D01*
X82364600Y-97349700D01*
X81920787Y-97488504D01*
X81563876Y-97786582D01*
X81348202Y-98198554D01*
X81347797Y-98224956D01*
X71042173Y-98224956D01*
X70832947Y-97718589D01*
X70418891Y-97303810D01*
X70366908Y-97282225D01*
X70416711Y-97261647D01*
X70831490Y-96847591D01*
X70996521Y-96450150D01*
X74768710Y-96450150D01*
X74768710Y-97290199D01*
X74865383Y-97523588D01*
X75044011Y-97702217D01*
X75277400Y-97798890D01*
X76117450Y-97798890D01*
X76276200Y-97640140D01*
X76276200Y-96291400D01*
X76530200Y-96291400D01*
X76530200Y-97640140D01*
X76688950Y-97798890D01*
X77529000Y-97798890D01*
X77762389Y-97702217D01*
X77941017Y-97523588D01*
X78037690Y-97290199D01*
X78037690Y-96450150D01*
X77878940Y-96291400D01*
X76530200Y-96291400D01*
X76276200Y-96291400D01*
X74927460Y-96291400D01*
X74768710Y-96450150D01*
X70996521Y-96450150D01*
X71056244Y-96306323D01*
X71056755Y-95720248D01*
X70832947Y-95178589D01*
X70418891Y-94763810D01*
X70366908Y-94742225D01*
X70416711Y-94721647D01*
X70831490Y-94307591D01*
X71056244Y-93766323D01*
X71056755Y-93180248D01*
X70832947Y-92638589D01*
X70418891Y-92223810D01*
X70366908Y-92202225D01*
X70416711Y-92181647D01*
X70831490Y-91767591D01*
X71056244Y-91226323D01*
X71056755Y-90640248D01*
X70832947Y-90098589D01*
X70418891Y-89683810D01*
X70366908Y-89662225D01*
X70416711Y-89641647D01*
X70831490Y-89227591D01*
X71056244Y-88686323D01*
X71056755Y-88100248D01*
X70976057Y-87904943D01*
X71173171Y-87904943D01*
X71321733Y-88264492D01*
X71419720Y-88362650D01*
X71419720Y-90417641D01*
X71327780Y-90509421D01*
X71178590Y-90868710D01*
X71178251Y-91257743D01*
X71326813Y-91617292D01*
X71601661Y-91892620D01*
X71960950Y-92041810D01*
X72349983Y-92042149D01*
X72709532Y-91893587D01*
X72984860Y-91618739D01*
X73134050Y-91259450D01*
X73134230Y-91052378D01*
X74768710Y-91052378D01*
X74768710Y-91116422D01*
X74893128Y-91741914D01*
X75247441Y-92272181D01*
X75370490Y-92354400D01*
X75247441Y-92436619D01*
X74893128Y-92966886D01*
X74768710Y-93592378D01*
X74768710Y-93656422D01*
X74893128Y-94281914D01*
X75106213Y-94600818D01*
X75044011Y-94626583D01*
X74865383Y-94805212D01*
X74768710Y-95038601D01*
X74768710Y-95878650D01*
X74927460Y-96037400D01*
X76276200Y-96037400D01*
X76276200Y-96017400D01*
X76530200Y-96017400D01*
X76530200Y-96037400D01*
X77878940Y-96037400D01*
X78037690Y-95878650D01*
X78037690Y-95038601D01*
X77941017Y-94805212D01*
X77762389Y-94626583D01*
X77700187Y-94600818D01*
X77913272Y-94281914D01*
X78037690Y-93656422D01*
X78037690Y-93592378D01*
X77913272Y-92966886D01*
X77558959Y-92436619D01*
X77435910Y-92354400D01*
X77558959Y-92272181D01*
X77913272Y-91741914D01*
X78037690Y-91116422D01*
X78037690Y-91052378D01*
X77913272Y-90426886D01*
X77558959Y-89896619D01*
X77028692Y-89542306D01*
X76403200Y-89417888D01*
X75777708Y-89542306D01*
X75247441Y-89896619D01*
X74893128Y-90426886D01*
X74768710Y-91052378D01*
X73134230Y-91052378D01*
X73134389Y-90870417D01*
X72985827Y-90510868D01*
X72892920Y-90417799D01*
X72892920Y-88352648D01*
X72979780Y-88265939D01*
X73128970Y-87906650D01*
X73129309Y-87517617D01*
X72980747Y-87158068D01*
X72705899Y-86882740D01*
X72346610Y-86733550D01*
X71957577Y-86733211D01*
X71598028Y-86881773D01*
X71322700Y-87156621D01*
X71173510Y-87515910D01*
X71173171Y-87904943D01*
X70976057Y-87904943D01*
X70832947Y-87558589D01*
X70418891Y-87143810D01*
X70366908Y-87122225D01*
X70416711Y-87101647D01*
X70831490Y-86687591D01*
X71056244Y-86146323D01*
X71056755Y-85560248D01*
X70832947Y-85018589D01*
X70418891Y-84603810D01*
X70365305Y-84581559D01*
X70439107Y-84347415D01*
X70553855Y-84462163D01*
X70558772Y-84457246D01*
X70559733Y-84459572D01*
X70834581Y-84734900D01*
X71193870Y-84884090D01*
X71582903Y-84884429D01*
X71942452Y-84735867D01*
X72217780Y-84461019D01*
X72366970Y-84101730D01*
X72367309Y-83712697D01*
X72218747Y-83353148D01*
X72039480Y-83173568D01*
X72039480Y-82285840D01*
X74659397Y-82285840D01*
X74783815Y-82911332D01*
X75138128Y-83441599D01*
X75668395Y-83795912D01*
X76293887Y-83920330D01*
X76868113Y-83920330D01*
X77493605Y-83795912D01*
X78023872Y-83441599D01*
X78378185Y-82911332D01*
X78502603Y-82285840D01*
X78378185Y-81660348D01*
X78023872Y-81130081D01*
X77493605Y-80775768D01*
X76868113Y-80651350D01*
X76293887Y-80651350D01*
X75668395Y-80775768D01*
X75138128Y-81130081D01*
X74783815Y-81660348D01*
X74659397Y-82285840D01*
X72039480Y-82285840D01*
X72039480Y-77403960D01*
X74659397Y-77403960D01*
X74783815Y-78029452D01*
X75138128Y-78559719D01*
X75668395Y-78914032D01*
X76293887Y-79038450D01*
X76868113Y-79038450D01*
X77493605Y-78914032D01*
X78023872Y-78559719D01*
X78378185Y-78029452D01*
X78502603Y-77403960D01*
X78378185Y-76778468D01*
X78023872Y-76248201D01*
X77493605Y-75893888D01*
X76868113Y-75769470D01*
X76293887Y-75769470D01*
X75668395Y-75893888D01*
X75138128Y-76248201D01*
X74783815Y-76778468D01*
X74659397Y-77403960D01*
X72039480Y-77403960D01*
X72039480Y-71873119D01*
X72131420Y-71781339D01*
X72280610Y-71422050D01*
X72280949Y-71033017D01*
X72132387Y-70673468D01*
X71857539Y-70398140D01*
X71498250Y-70248950D01*
X71109217Y-70248611D01*
X71039122Y-70277573D01*
X70832947Y-69778589D01*
X70418891Y-69363810D01*
X70366908Y-69342225D01*
X70416711Y-69321647D01*
X70654582Y-69084190D01*
X74467720Y-69084190D01*
X74467720Y-69940749D01*
X74564393Y-70174138D01*
X74743021Y-70352767D01*
X74976410Y-70449440D01*
X75680570Y-70449440D01*
X75839320Y-70290690D01*
X75839320Y-68925440D01*
X74626470Y-68925440D01*
X74467720Y-69084190D01*
X70654582Y-69084190D01*
X70831490Y-68907591D01*
X71056244Y-68366323D01*
X71056755Y-67780248D01*
X71005472Y-67656131D01*
X74467720Y-67656131D01*
X74467720Y-68512690D01*
X74626470Y-68671440D01*
X75839320Y-68671440D01*
X75839320Y-67306190D01*
X76093320Y-67306190D01*
X76093320Y-68671440D01*
X76113320Y-68671440D01*
X76113320Y-68925440D01*
X76093320Y-68925440D01*
X76093320Y-70290690D01*
X76252070Y-70449440D01*
X76956230Y-70449440D01*
X77189619Y-70352767D01*
X77368247Y-70174138D01*
X77431820Y-70020660D01*
X77446650Y-70042855D01*
X77932831Y-70367711D01*
X78506320Y-70481785D01*
X79079809Y-70367711D01*
X79565990Y-70042855D01*
X79776320Y-69728074D01*
X79986650Y-70042855D01*
X80444780Y-70348968D01*
X80177140Y-70616141D01*
X80027950Y-70975430D01*
X80027611Y-71364463D01*
X80176173Y-71724012D01*
X80451021Y-71999340D01*
X80810310Y-72148530D01*
X81199343Y-72148869D01*
X81558892Y-72000307D01*
X81651961Y-71907400D01*
X119201890Y-71907400D01*
X121749764Y-74455274D01*
X121749651Y-74585183D01*
X121898213Y-74944732D01*
X122173061Y-75220060D01*
X122532350Y-75369250D01*
X122921383Y-75369589D01*
X123280932Y-75221027D01*
X123556260Y-74946179D01*
X123705450Y-74586890D01*
X123705789Y-74197857D01*
X123557227Y-73838308D01*
X123282379Y-73562980D01*
X122923090Y-73413790D01*
X122791585Y-73413675D01*
X120027855Y-70649945D01*
X119788885Y-70490270D01*
X119507000Y-70434200D01*
X114193322Y-70434200D01*
X114193322Y-70284658D01*
X114425346Y-70405798D01*
X114441111Y-70403149D01*
X114968356Y-70149172D01*
X115358274Y-69712760D01*
X115551504Y-69160353D01*
X115407244Y-68925440D01*
X114193320Y-68925440D01*
X114193320Y-68945440D01*
X113939320Y-68945440D01*
X113939320Y-68925440D01*
X113919320Y-68925440D01*
X113919320Y-68671440D01*
X113939320Y-68671440D01*
X113939320Y-67312223D01*
X114193320Y-67312223D01*
X114193320Y-68671440D01*
X115407244Y-68671440D01*
X115551504Y-68436527D01*
X115358274Y-67884120D01*
X114968356Y-67447708D01*
X114441111Y-67193731D01*
X114425346Y-67191082D01*
X114193320Y-67312223D01*
X113939320Y-67312223D01*
X113707294Y-67191082D01*
X113691529Y-67193731D01*
X113164284Y-67447708D01*
X112792781Y-67863509D01*
X112585990Y-67554025D01*
X112099809Y-67229169D01*
X111526320Y-67115095D01*
X110952831Y-67229169D01*
X110466650Y-67554025D01*
X110256320Y-67868806D01*
X110045990Y-67554025D01*
X109559809Y-67229169D01*
X108986320Y-67115095D01*
X108412831Y-67229169D01*
X107926650Y-67554025D01*
X107716320Y-67868806D01*
X107505990Y-67554025D01*
X107019809Y-67229169D01*
X106446320Y-67115095D01*
X105872831Y-67229169D01*
X105386650Y-67554025D01*
X105176320Y-67868806D01*
X104965990Y-67554025D01*
X104479809Y-67229169D01*
X103906320Y-67115095D01*
X103332831Y-67229169D01*
X102846650Y-67554025D01*
X102636320Y-67868806D01*
X102425990Y-67554025D01*
X101939809Y-67229169D01*
X101366320Y-67115095D01*
X100792831Y-67229169D01*
X100306650Y-67554025D01*
X100096320Y-67868806D01*
X99885990Y-67554025D01*
X99399809Y-67229169D01*
X98826320Y-67115095D01*
X98252831Y-67229169D01*
X97766650Y-67554025D01*
X97556320Y-67868806D01*
X97345990Y-67554025D01*
X96859809Y-67229169D01*
X96286320Y-67115095D01*
X95712831Y-67229169D01*
X95226650Y-67554025D01*
X95016320Y-67868806D01*
X94805990Y-67554025D01*
X94319809Y-67229169D01*
X93746320Y-67115095D01*
X93172831Y-67229169D01*
X92686650Y-67554025D01*
X92476320Y-67868806D01*
X92265990Y-67554025D01*
X91779809Y-67229169D01*
X91206320Y-67115095D01*
X90632831Y-67229169D01*
X90146650Y-67554025D01*
X89936320Y-67868806D01*
X89725990Y-67554025D01*
X89239809Y-67229169D01*
X88666320Y-67115095D01*
X88092831Y-67229169D01*
X87606650Y-67554025D01*
X87399859Y-67863509D01*
X87028356Y-67447708D01*
X86501111Y-67193731D01*
X86485346Y-67191082D01*
X86253320Y-67312223D01*
X86253320Y-68671440D01*
X86273320Y-68671440D01*
X86273320Y-68925440D01*
X86253320Y-68925440D01*
X86253320Y-68945440D01*
X85999320Y-68945440D01*
X85999320Y-68925440D01*
X85979320Y-68925440D01*
X85979320Y-68671440D01*
X85999320Y-68671440D01*
X85999320Y-67312223D01*
X85767294Y-67191082D01*
X85751529Y-67193731D01*
X85224284Y-67447708D01*
X84852781Y-67863509D01*
X84645990Y-67554025D01*
X84159809Y-67229169D01*
X83586320Y-67115095D01*
X83012831Y-67229169D01*
X82526650Y-67554025D01*
X82316320Y-67868806D01*
X82105990Y-67554025D01*
X81619809Y-67229169D01*
X81046320Y-67115095D01*
X80472831Y-67229169D01*
X79986650Y-67554025D01*
X79776320Y-67868806D01*
X79565990Y-67554025D01*
X79079809Y-67229169D01*
X78506320Y-67115095D01*
X77932831Y-67229169D01*
X77446650Y-67554025D01*
X77431820Y-67576220D01*
X77368247Y-67422742D01*
X77189619Y-67244113D01*
X76956230Y-67147440D01*
X76252070Y-67147440D01*
X76093320Y-67306190D01*
X75839320Y-67306190D01*
X75680570Y-67147440D01*
X74976410Y-67147440D01*
X74743021Y-67244113D01*
X74564393Y-67422742D01*
X74467720Y-67656131D01*
X71005472Y-67656131D01*
X70832947Y-67238589D01*
X70418891Y-66823810D01*
X69877623Y-66599056D01*
X69291548Y-66598545D01*
X68749889Y-66822353D01*
X68707011Y-66865156D01*
X68707011Y-66817251D01*
X68650941Y-66535366D01*
X68526700Y-66349427D01*
X68526829Y-66201937D01*
X68444729Y-66003240D01*
X140000920Y-66003240D01*
X140000920Y-112378701D01*
X139997919Y-113402040D01*
X100393311Y-113402040D01*
X100438031Y-113336590D01*
X100489040Y-113084700D01*
X100489040Y-111984700D01*
X100452272Y-111789295D01*
X106412116Y-111789295D01*
X106660506Y-112390443D01*
X107120037Y-112850778D01*
X107720752Y-113100216D01*
X108371195Y-113100784D01*
X108972343Y-112852394D01*
X109207115Y-112618032D01*
X111574473Y-112618032D01*
X111673136Y-112884887D01*
X112282861Y-113111408D01*
X112932860Y-113087356D01*
X113421664Y-112884887D01*
X113520327Y-112618032D01*
X112547400Y-111645105D01*
X111574473Y-112618032D01*
X109207115Y-112618032D01*
X109432678Y-112392863D01*
X109682116Y-111792148D01*
X109682632Y-111200961D01*
X110901492Y-111200961D01*
X110925544Y-111850960D01*
X111128013Y-112339764D01*
X111394868Y-112438427D01*
X112367795Y-111465500D01*
X112727005Y-111465500D01*
X113699932Y-112438427D01*
X113966787Y-112339764D01*
X114193308Y-111730039D01*
X114183471Y-111464187D01*
X122440552Y-111464187D01*
X122658557Y-111991800D01*
X123061877Y-112395824D01*
X123589109Y-112614750D01*
X124159987Y-112615248D01*
X124687600Y-112397243D01*
X125091624Y-111993923D01*
X125310550Y-111466691D01*
X125311048Y-110895813D01*
X125093043Y-110368200D01*
X124689723Y-109964176D01*
X124162491Y-109745250D01*
X123591613Y-109744752D01*
X123064000Y-109962757D01*
X122659976Y-110366077D01*
X122441050Y-110893309D01*
X122440552Y-111464187D01*
X114183471Y-111464187D01*
X114169256Y-111080040D01*
X113966787Y-110591236D01*
X113699932Y-110492573D01*
X112727005Y-111465500D01*
X112367795Y-111465500D01*
X111394868Y-110492573D01*
X111128013Y-110591236D01*
X110901492Y-111200961D01*
X109682632Y-111200961D01*
X109682684Y-111141705D01*
X109434294Y-110540557D01*
X109207103Y-110312968D01*
X111574473Y-110312968D01*
X112547400Y-111285895D01*
X113520327Y-110312968D01*
X113421664Y-110046113D01*
X112811939Y-109819592D01*
X112161940Y-109843644D01*
X111673136Y-110046113D01*
X111574473Y-110312968D01*
X109207103Y-110312968D01*
X108974763Y-110080222D01*
X108374048Y-109830784D01*
X107723605Y-109830216D01*
X107122457Y-110078606D01*
X106662122Y-110538137D01*
X106412684Y-111138852D01*
X106412116Y-111789295D01*
X100452272Y-111789295D01*
X100444762Y-111749383D01*
X100305690Y-111533259D01*
X100117985Y-111405006D01*
X100166451Y-111372622D01*
X100423326Y-110988180D01*
X100513529Y-110534700D01*
X100423326Y-110081220D01*
X100166451Y-109696778D01*
X99923883Y-109534700D01*
X100166451Y-109372622D01*
X100423326Y-108988180D01*
X100513529Y-108534700D01*
X100423326Y-108081220D01*
X100166451Y-107696778D01*
X99923883Y-107534700D01*
X100166451Y-107372622D01*
X100423326Y-106988180D01*
X100424159Y-106983991D01*
X122340535Y-106983991D01*
X122573732Y-107548371D01*
X123005157Y-107980551D01*
X123569130Y-108214733D01*
X124179791Y-108215265D01*
X124744171Y-107982068D01*
X125176351Y-107550643D01*
X125410533Y-106986670D01*
X125411065Y-106376009D01*
X125177868Y-105811629D01*
X124746443Y-105379449D01*
X124182470Y-105145267D01*
X123571809Y-105144735D01*
X123007429Y-105377932D01*
X122575249Y-105809357D01*
X122341067Y-106373330D01*
X122340535Y-106983991D01*
X100424159Y-106983991D01*
X100513529Y-106534700D01*
X100423326Y-106081220D01*
X100166451Y-105696778D01*
X99923883Y-105534700D01*
X100166451Y-105372622D01*
X100222128Y-105289295D01*
X106412116Y-105289295D01*
X106660506Y-105890443D01*
X107120037Y-106350778D01*
X107720752Y-106600216D01*
X108371195Y-106600784D01*
X108972343Y-106352394D01*
X109207115Y-106118032D01*
X111574473Y-106118032D01*
X111673136Y-106384887D01*
X112282861Y-106611408D01*
X112932860Y-106587356D01*
X113421664Y-106384887D01*
X113520327Y-106118032D01*
X112547400Y-105145105D01*
X111574473Y-106118032D01*
X109207115Y-106118032D01*
X109432678Y-105892863D01*
X109682116Y-105292148D01*
X109682632Y-104700961D01*
X110901492Y-104700961D01*
X110925544Y-105350960D01*
X111128013Y-105839764D01*
X111394868Y-105938427D01*
X112367795Y-104965500D01*
X112727005Y-104965500D01*
X113699932Y-105938427D01*
X113966787Y-105839764D01*
X114193308Y-105230039D01*
X114169256Y-104580040D01*
X113966787Y-104091236D01*
X113699932Y-103992573D01*
X112727005Y-104965500D01*
X112367795Y-104965500D01*
X111394868Y-103992573D01*
X111128013Y-104091236D01*
X110901492Y-104700961D01*
X109682632Y-104700961D01*
X109682684Y-104641705D01*
X109434294Y-104040557D01*
X109207103Y-103812968D01*
X111574473Y-103812968D01*
X112547400Y-104785895D01*
X113520327Y-103812968D01*
X113421664Y-103546113D01*
X112811939Y-103319592D01*
X112161940Y-103343644D01*
X111673136Y-103546113D01*
X111574473Y-103812968D01*
X109207103Y-103812968D01*
X108974763Y-103580222D01*
X108374048Y-103330784D01*
X107723605Y-103330216D01*
X107122457Y-103578606D01*
X106662122Y-104038137D01*
X106412684Y-104638852D01*
X106412116Y-105289295D01*
X100222128Y-105289295D01*
X100423326Y-104988180D01*
X100513529Y-104534700D01*
X100423326Y-104081220D01*
X100166451Y-103696778D01*
X99923883Y-103534700D01*
X100166451Y-103372622D01*
X100423326Y-102988180D01*
X100513529Y-102534700D01*
X100423326Y-102081220D01*
X100166451Y-101696778D01*
X99923883Y-101534700D01*
X100166451Y-101372622D01*
X100423326Y-100988180D01*
X100513529Y-100534700D01*
X100423326Y-100081220D01*
X100166451Y-99696778D01*
X99923883Y-99534700D01*
X100166451Y-99372622D01*
X100423326Y-98988180D01*
X100513529Y-98534700D01*
X100423326Y-98081220D01*
X100166451Y-97696778D01*
X99782009Y-97439903D01*
X99328529Y-97349700D01*
X97854671Y-97349700D01*
X97401191Y-97439903D01*
X97016749Y-97696778D01*
X96759874Y-98081220D01*
X96669671Y-98534700D01*
X96759874Y-98988180D01*
X97016749Y-99372622D01*
X97259317Y-99534700D01*
X97016749Y-99696778D01*
X96759874Y-100081220D01*
X96669671Y-100534700D01*
X96759874Y-100988180D01*
X97016749Y-101372622D01*
X97259317Y-101534700D01*
X97016749Y-101696778D01*
X96759874Y-102081220D01*
X96669671Y-102534700D01*
X96759874Y-102988180D01*
X97016749Y-103372622D01*
X97259317Y-103534700D01*
X97016749Y-103696778D01*
X96759874Y-104081220D01*
X96669671Y-104534700D01*
X96759874Y-104988180D01*
X97016749Y-105372622D01*
X97259317Y-105534700D01*
X97016749Y-105696778D01*
X96759874Y-106081220D01*
X96669671Y-106534700D01*
X96759874Y-106988180D01*
X97016749Y-107372622D01*
X97259317Y-107534700D01*
X97016749Y-107696778D01*
X96759874Y-108081220D01*
X96669671Y-108534700D01*
X96759874Y-108988180D01*
X97016749Y-109372622D01*
X97259317Y-109534700D01*
X97016749Y-109696778D01*
X96759874Y-110081220D01*
X96669671Y-110534700D01*
X96759874Y-110988180D01*
X97016749Y-111372622D01*
X97067471Y-111406513D01*
X96890159Y-111520610D01*
X96745169Y-111732810D01*
X96694160Y-111984700D01*
X96694160Y-113084700D01*
X96738438Y-113320017D01*
X96791218Y-113402040D01*
X84722424Y-113402040D01*
X84766451Y-113372622D01*
X85023326Y-112988180D01*
X85113529Y-112534700D01*
X85023326Y-112081220D01*
X84766451Y-111696778D01*
X84523883Y-111534700D01*
X84766451Y-111372622D01*
X85023326Y-110988180D01*
X85113529Y-110534700D01*
X85023326Y-110081220D01*
X84766451Y-109696778D01*
X84523883Y-109534700D01*
X84766451Y-109372622D01*
X85023326Y-108988180D01*
X85113529Y-108534700D01*
X85023326Y-108081220D01*
X84766451Y-107696778D01*
X84523883Y-107534700D01*
X84766451Y-107372622D01*
X85023326Y-106988180D01*
X85113529Y-106534700D01*
X85023326Y-106081220D01*
X84766451Y-105696778D01*
X84523883Y-105534700D01*
X84766451Y-105372622D01*
X85023326Y-104988180D01*
X85113529Y-104534700D01*
X85023326Y-104081220D01*
X84766451Y-103696778D01*
X84523883Y-103534700D01*
X84766451Y-103372622D01*
X85023326Y-102988180D01*
X85113529Y-102534700D01*
X85023326Y-102081220D01*
X84766451Y-101696778D01*
X84573883Y-101568109D01*
X84866451Y-101372622D01*
X85123326Y-100988180D01*
X85213529Y-100534700D01*
X85123326Y-100081220D01*
X84866451Y-99696778D01*
X84564909Y-99495295D01*
X84819324Y-99282818D01*
X85034998Y-98870846D01*
X85035403Y-98844444D01*
X84909961Y-98661700D01*
X83318600Y-98661700D01*
X83318600Y-98681700D01*
X83064600Y-98681700D01*
X83064600Y-98661700D01*
X81473239Y-98661700D01*
X81347797Y-98844444D01*
X81348202Y-98870846D01*
X81563876Y-99282818D01*
X81907183Y-99569535D01*
X81716749Y-99696778D01*
X81459874Y-100081220D01*
X81369671Y-100534700D01*
X81459874Y-100988180D01*
X81716749Y-101372622D01*
X81909317Y-101501291D01*
X81616749Y-101696778D01*
X81359874Y-102081220D01*
X81269671Y-102534700D01*
X81359874Y-102988180D01*
X81616749Y-103372622D01*
X81859317Y-103534700D01*
X81616749Y-103696778D01*
X81359874Y-104081220D01*
X81269671Y-104534700D01*
X81359874Y-104988180D01*
X81616749Y-105372622D01*
X81859317Y-105534700D01*
X81616749Y-105696778D01*
X81359874Y-106081220D01*
X81269671Y-106534700D01*
X81359874Y-106988180D01*
X81616749Y-107372622D01*
X81859317Y-107534700D01*
X81616749Y-107696778D01*
X81359874Y-108081220D01*
X81269671Y-108534700D01*
X81359874Y-108988180D01*
X81616749Y-109372622D01*
X81859317Y-109534700D01*
X81616749Y-109696778D01*
X81359874Y-110081220D01*
X81269671Y-110534700D01*
X81359874Y-110988180D01*
X81616749Y-111372622D01*
X81859317Y-111534700D01*
X81616749Y-111696778D01*
X81359874Y-112081220D01*
X81269671Y-112534700D01*
X81359874Y-112988180D01*
X81616749Y-113372622D01*
X81660776Y-113402040D01*
X44098280Y-113402040D01*
X44098280Y-112446832D01*
X62084973Y-112446832D01*
X62183636Y-112713687D01*
X62793361Y-112940208D01*
X63443360Y-112916156D01*
X63932164Y-112713687D01*
X64030827Y-112446832D01*
X68584973Y-112446832D01*
X68683636Y-112713687D01*
X69293361Y-112940208D01*
X69943360Y-112916156D01*
X70432164Y-112713687D01*
X70530827Y-112446832D01*
X69557900Y-111473905D01*
X68584973Y-112446832D01*
X64030827Y-112446832D01*
X63057900Y-111473905D01*
X62084973Y-112446832D01*
X44098280Y-112446832D01*
X44098280Y-111029761D01*
X61411992Y-111029761D01*
X61436044Y-111679760D01*
X61638513Y-112168564D01*
X61905368Y-112267227D01*
X62878295Y-111294300D01*
X63237505Y-111294300D01*
X64210432Y-112267227D01*
X64477287Y-112168564D01*
X64703808Y-111558839D01*
X64684231Y-111029761D01*
X67911992Y-111029761D01*
X67936044Y-111679760D01*
X68138513Y-112168564D01*
X68405368Y-112267227D01*
X69378295Y-111294300D01*
X69737505Y-111294300D01*
X70710432Y-112267227D01*
X70977287Y-112168564D01*
X71203808Y-111558839D01*
X71179756Y-110908840D01*
X70977287Y-110420036D01*
X70710432Y-110321373D01*
X69737505Y-111294300D01*
X69378295Y-111294300D01*
X68405368Y-110321373D01*
X68138513Y-110420036D01*
X67911992Y-111029761D01*
X64684231Y-111029761D01*
X64679756Y-110908840D01*
X64477287Y-110420036D01*
X64210432Y-110321373D01*
X63237505Y-111294300D01*
X62878295Y-111294300D01*
X61905368Y-110321373D01*
X61638513Y-110420036D01*
X61411992Y-111029761D01*
X44098280Y-111029761D01*
X44098280Y-110141768D01*
X62084973Y-110141768D01*
X63057900Y-111114695D01*
X64030827Y-110141768D01*
X68584973Y-110141768D01*
X69557900Y-111114695D01*
X70530827Y-110141768D01*
X70432164Y-109874913D01*
X69822439Y-109648392D01*
X69172440Y-109672444D01*
X68683636Y-109874913D01*
X68584973Y-110141768D01*
X64030827Y-110141768D01*
X63932164Y-109874913D01*
X63322439Y-109648392D01*
X62672440Y-109672444D01*
X62183636Y-109874913D01*
X62084973Y-110141768D01*
X44098280Y-110141768D01*
X44098280Y-107118095D01*
X61422616Y-107118095D01*
X61671006Y-107719243D01*
X62130537Y-108179578D01*
X62731252Y-108429016D01*
X63381695Y-108429584D01*
X63982843Y-108181194D01*
X64443178Y-107721663D01*
X64692616Y-107120948D01*
X64692618Y-107118095D01*
X67922616Y-107118095D01*
X68171006Y-107719243D01*
X68630537Y-108179578D01*
X69231252Y-108429016D01*
X69881695Y-108429584D01*
X70482843Y-108181194D01*
X70943178Y-107721663D01*
X71192616Y-107120948D01*
X71193184Y-106470505D01*
X71157973Y-106385286D01*
X72808869Y-106385286D01*
X73011454Y-106875580D01*
X73386247Y-107251027D01*
X73876187Y-107454468D01*
X74406686Y-107454931D01*
X74896980Y-107252346D01*
X75094281Y-107055388D01*
X75928017Y-107055388D01*
X75989671Y-107291000D01*
X76490080Y-107467127D01*
X77019799Y-107438348D01*
X77375529Y-107291000D01*
X77437183Y-107055388D01*
X76682600Y-106300805D01*
X75928017Y-107055388D01*
X75094281Y-107055388D01*
X75272427Y-106877553D01*
X75405914Y-106556082D01*
X75512800Y-106814129D01*
X75748412Y-106875783D01*
X76502995Y-106121200D01*
X76862205Y-106121200D01*
X77616788Y-106875783D01*
X77852400Y-106814129D01*
X77876660Y-106745202D01*
X77876660Y-106819700D01*
X77920938Y-107055017D01*
X78060010Y-107271141D01*
X78272210Y-107416131D01*
X78524100Y-107467140D01*
X79921100Y-107467140D01*
X80156417Y-107422862D01*
X80372541Y-107283790D01*
X80517531Y-107071590D01*
X80568540Y-106819700D01*
X80568540Y-105422700D01*
X80524262Y-105187383D01*
X80385190Y-104971259D01*
X80172990Y-104826269D01*
X79921100Y-104775260D01*
X78524100Y-104775260D01*
X78288783Y-104819538D01*
X78072659Y-104958610D01*
X77927669Y-105170810D01*
X77876660Y-105422700D01*
X77876660Y-105486840D01*
X77852400Y-105428271D01*
X77616788Y-105366617D01*
X76862205Y-106121200D01*
X76502995Y-106121200D01*
X75748412Y-105366617D01*
X75512800Y-105428271D01*
X75414517Y-105707512D01*
X75273746Y-105366820D01*
X75094252Y-105187012D01*
X75928017Y-105187012D01*
X76682600Y-105941595D01*
X77437183Y-105187012D01*
X77375529Y-104951400D01*
X76875120Y-104775273D01*
X76345401Y-104804052D01*
X75989671Y-104951400D01*
X75928017Y-105187012D01*
X75094252Y-105187012D01*
X74898953Y-104991373D01*
X74409013Y-104787932D01*
X73878514Y-104787469D01*
X73388220Y-104990054D01*
X73012773Y-105364847D01*
X72809332Y-105854787D01*
X72808869Y-106385286D01*
X71157973Y-106385286D01*
X70944794Y-105869357D01*
X70485263Y-105409022D01*
X69884548Y-105159584D01*
X69234105Y-105159016D01*
X68632957Y-105407406D01*
X68172622Y-105866937D01*
X67923184Y-106467652D01*
X67922616Y-107118095D01*
X64692618Y-107118095D01*
X64693184Y-106470505D01*
X64444794Y-105869357D01*
X63985263Y-105409022D01*
X63384548Y-105159584D01*
X62734105Y-105159016D01*
X62132957Y-105407406D01*
X61672622Y-105866937D01*
X61423184Y-106467652D01*
X61422616Y-107118095D01*
X44098280Y-107118095D01*
X44098280Y-100067110D01*
X53839370Y-100067110D01*
X53839370Y-102066090D01*
X53883648Y-102301407D01*
X54022720Y-102517531D01*
X54234920Y-102662521D01*
X54486810Y-102713530D01*
X56485790Y-102713530D01*
X56721107Y-102669252D01*
X56937231Y-102530180D01*
X57082221Y-102317980D01*
X57133230Y-102066090D01*
X57133230Y-100067110D01*
X57088952Y-99831793D01*
X56949880Y-99615669D01*
X56783827Y-99502210D01*
X56996372Y-99184114D01*
X57120790Y-98558622D01*
X57120790Y-98494578D01*
X56996372Y-97869086D01*
X56642059Y-97338819D01*
X56111792Y-96984506D01*
X55486300Y-96860088D01*
X54860808Y-96984506D01*
X54330541Y-97338819D01*
X53976228Y-97869086D01*
X53851810Y-98494578D01*
X53851810Y-98558622D01*
X53976228Y-99184114D01*
X54189753Y-99503677D01*
X54035369Y-99603020D01*
X53890379Y-99815220D01*
X53839370Y-100067110D01*
X44098280Y-100067110D01*
X44098280Y-83947623D01*
X45199131Y-83947623D01*
X45347693Y-84307172D01*
X45440600Y-84400241D01*
X45440600Y-94701360D01*
X45496670Y-94983245D01*
X45509188Y-95001979D01*
X45509011Y-95204903D01*
X45657573Y-95564452D01*
X45932421Y-95839780D01*
X46291710Y-95988970D01*
X46680743Y-95989309D01*
X47040292Y-95840747D01*
X47315620Y-95565899D01*
X47464810Y-95206610D01*
X47465149Y-94817577D01*
X47316587Y-94458028D01*
X47041739Y-94182700D01*
X46913800Y-94129575D01*
X46913800Y-89945210D01*
X53839370Y-89945210D01*
X53839370Y-91944190D01*
X53883648Y-92179507D01*
X54022720Y-92395631D01*
X54234920Y-92540621D01*
X54486810Y-92591630D01*
X56485790Y-92591630D01*
X56721107Y-92547352D01*
X56937231Y-92408280D01*
X57082221Y-92196080D01*
X57133230Y-91944190D01*
X57133230Y-89945210D01*
X57088952Y-89709893D01*
X56949880Y-89493769D01*
X56783827Y-89380310D01*
X56996372Y-89062214D01*
X57071652Y-88683752D01*
X60489845Y-88683752D01*
X60713653Y-89225411D01*
X61127709Y-89640190D01*
X61179692Y-89661775D01*
X61129889Y-89682353D01*
X60715110Y-90096409D01*
X60490356Y-90637677D01*
X60489845Y-91223752D01*
X60713653Y-91765411D01*
X61127709Y-92180190D01*
X61179692Y-92201775D01*
X61129889Y-92222353D01*
X60715110Y-92636409D01*
X60490356Y-93177677D01*
X60489845Y-93763752D01*
X60713653Y-94305411D01*
X61127709Y-94720190D01*
X61179692Y-94741775D01*
X61129889Y-94762353D01*
X60715110Y-95176409D01*
X60490356Y-95717677D01*
X60489845Y-96303752D01*
X60713653Y-96845411D01*
X61127709Y-97260190D01*
X61179692Y-97281775D01*
X61129889Y-97302353D01*
X60715110Y-97716409D01*
X60490356Y-98257677D01*
X60489845Y-98843752D01*
X60713653Y-99385411D01*
X61127709Y-99800190D01*
X61179692Y-99821775D01*
X61129889Y-99842353D01*
X60715110Y-100256409D01*
X60490356Y-100797677D01*
X60489845Y-101383752D01*
X60713653Y-101925411D01*
X61127709Y-102340190D01*
X61668977Y-102564944D01*
X62255052Y-102565455D01*
X62796711Y-102341647D01*
X63211490Y-101927591D01*
X63436244Y-101386323D01*
X63436755Y-100800248D01*
X63212947Y-100258589D01*
X62798891Y-99843810D01*
X62746908Y-99822225D01*
X62796711Y-99801647D01*
X63211490Y-99387591D01*
X63436244Y-98846323D01*
X63436755Y-98260248D01*
X63212947Y-97718589D01*
X62798891Y-97303810D01*
X62746908Y-97282225D01*
X62796711Y-97261647D01*
X63211490Y-96847591D01*
X63436244Y-96306323D01*
X63436755Y-95720248D01*
X63212947Y-95178589D01*
X62798891Y-94763810D01*
X62746908Y-94742225D01*
X62796711Y-94721647D01*
X63211490Y-94307591D01*
X63436244Y-93766323D01*
X63436755Y-93180248D01*
X63212947Y-92638589D01*
X62798891Y-92223810D01*
X62746908Y-92202225D01*
X62796711Y-92181647D01*
X63211490Y-91767591D01*
X63436244Y-91226323D01*
X63436755Y-90640248D01*
X63212947Y-90098589D01*
X62798891Y-89683810D01*
X62746908Y-89662225D01*
X62796711Y-89641647D01*
X63211490Y-89227591D01*
X63436244Y-88686323D01*
X63436755Y-88100248D01*
X63212947Y-87558589D01*
X62798891Y-87143810D01*
X62745305Y-87121559D01*
X62819108Y-86887413D01*
X61963300Y-86031605D01*
X61107492Y-86887413D01*
X61181171Y-87121164D01*
X61129889Y-87142353D01*
X60715110Y-87556409D01*
X60490356Y-88097677D01*
X60489845Y-88683752D01*
X57071652Y-88683752D01*
X57120790Y-88436722D01*
X57120790Y-88372678D01*
X56996372Y-87747186D01*
X56642059Y-87216919D01*
X56111792Y-86862606D01*
X55486300Y-86738188D01*
X54860808Y-86862606D01*
X54330541Y-87216919D01*
X53976228Y-87747186D01*
X53851810Y-88372678D01*
X53851810Y-88436722D01*
X53976228Y-89062214D01*
X54189753Y-89381777D01*
X54035369Y-89481120D01*
X53890379Y-89693320D01*
X53839370Y-89945210D01*
X46913800Y-89945210D01*
X46913800Y-85626097D01*
X60478323Y-85626097D01*
X60504911Y-86211569D01*
X60677810Y-86628983D01*
X60927887Y-86707808D01*
X61783695Y-85852000D01*
X62142905Y-85852000D01*
X62998713Y-86707808D01*
X63248790Y-86628983D01*
X63448277Y-86077903D01*
X63421689Y-85492431D01*
X63248790Y-85075017D01*
X62998713Y-84996192D01*
X62142905Y-85852000D01*
X61783695Y-85852000D01*
X60927887Y-84996192D01*
X60677810Y-85075017D01*
X60478323Y-85626097D01*
X46913800Y-85626097D01*
X46913800Y-84400399D01*
X47005740Y-84308619D01*
X47154930Y-83949330D01*
X47155269Y-83560297D01*
X47006707Y-83200748D01*
X46731859Y-82925420D01*
X46372570Y-82776230D01*
X45983537Y-82775891D01*
X45623988Y-82924453D01*
X45348660Y-83199301D01*
X45199470Y-83558590D01*
X45199131Y-83947623D01*
X44098280Y-83947623D01*
X44098280Y-82312510D01*
X53839370Y-82312510D01*
X53839370Y-84311490D01*
X53883648Y-84546807D01*
X54022720Y-84762931D01*
X54234920Y-84907921D01*
X54486810Y-84958930D01*
X56485790Y-84958930D01*
X56721107Y-84914652D01*
X56937231Y-84775580D01*
X57082221Y-84563380D01*
X57133230Y-84311490D01*
X57133230Y-82312510D01*
X57088952Y-82077193D01*
X56949880Y-81861069D01*
X56783827Y-81747610D01*
X56996372Y-81429514D01*
X57120790Y-80804022D01*
X57120790Y-80739978D01*
X56996372Y-80114486D01*
X56642059Y-79584219D01*
X56111792Y-79229906D01*
X55486300Y-79105488D01*
X54860808Y-79229906D01*
X54330541Y-79584219D01*
X53976228Y-80114486D01*
X53851810Y-80739978D01*
X53851810Y-80804022D01*
X53976228Y-81429514D01*
X54189753Y-81749077D01*
X54035369Y-81848420D01*
X53890379Y-82060620D01*
X53839370Y-82312510D01*
X44098280Y-82312510D01*
X44098280Y-66003240D01*
X66652827Y-66003240D01*
X66571030Y-66200230D01*
X66571030Y-66200230D01*
G37*
X66571030Y-66200230D02*
X66570691Y-66589263D01*
X66719253Y-66948812D01*
X66994101Y-67224140D01*
X67233811Y-67323676D01*
X67233811Y-69105501D01*
X66540436Y-68412126D01*
X66540549Y-68282217D01*
X66391987Y-67922668D01*
X66117139Y-67647340D01*
X65757850Y-67498150D01*
X65368817Y-67497811D01*
X65009268Y-67646373D01*
X64733940Y-67921221D01*
X64584750Y-68280510D01*
X64584411Y-68669543D01*
X64732973Y-69029092D01*
X65007821Y-69304420D01*
X65075796Y-69332646D01*
X64971660Y-69583434D01*
X64971321Y-69972467D01*
X65119883Y-70332016D01*
X65212790Y-70425085D01*
X65212790Y-71400800D01*
X63436479Y-73177111D01*
X63436755Y-72860248D01*
X63212947Y-72318589D01*
X62798891Y-71903810D01*
X62746908Y-71882225D01*
X62796711Y-71861647D01*
X63211490Y-71447591D01*
X63436244Y-70906323D01*
X63436755Y-70320248D01*
X63212947Y-69778589D01*
X62798891Y-69363810D01*
X62746908Y-69342225D01*
X62796711Y-69321647D01*
X63211490Y-68907591D01*
X63436244Y-68366323D01*
X63436755Y-67780248D01*
X63212947Y-67238589D01*
X62798891Y-66823810D01*
X62257623Y-66599056D01*
X61671548Y-66598545D01*
X61129889Y-66822353D01*
X60715110Y-67236409D01*
X60490356Y-67777677D01*
X60489845Y-68363752D01*
X60713653Y-68905411D01*
X61127709Y-69320190D01*
X61179692Y-69341775D01*
X61129889Y-69362353D01*
X60715110Y-69776409D01*
X60490356Y-70317677D01*
X60489845Y-70903752D01*
X60713653Y-71445411D01*
X61127709Y-71860190D01*
X61179692Y-71881775D01*
X61129889Y-71902353D01*
X60715110Y-72316409D01*
X60490356Y-72857677D01*
X60489845Y-73443752D01*
X60713653Y-73985411D01*
X61127709Y-74400190D01*
X61179692Y-74421775D01*
X61129889Y-74442353D01*
X60715110Y-74856409D01*
X60490356Y-75397677D01*
X60489845Y-75983752D01*
X60713653Y-76525411D01*
X61127709Y-76940190D01*
X61179692Y-76961775D01*
X61129889Y-76982353D01*
X60715110Y-77396409D01*
X60490356Y-77937677D01*
X60489845Y-78523752D01*
X60713653Y-79065411D01*
X61127709Y-79480190D01*
X61179692Y-79501775D01*
X61129889Y-79522353D01*
X60715110Y-79936409D01*
X60490356Y-80477677D01*
X60489845Y-81063752D01*
X60713653Y-81605411D01*
X61127709Y-82020190D01*
X61179692Y-82041775D01*
X61129889Y-82062353D01*
X60715110Y-82476409D01*
X60490356Y-83017677D01*
X60489845Y-83603752D01*
X60713653Y-84145411D01*
X61127709Y-84560190D01*
X61181295Y-84582441D01*
X61107492Y-84816587D01*
X61963300Y-85672395D01*
X62819108Y-84816587D01*
X62745429Y-84582836D01*
X62796711Y-84561647D01*
X63211490Y-84147591D01*
X63436244Y-83606323D01*
X63436755Y-83020248D01*
X63212947Y-82478589D01*
X62798891Y-82063810D01*
X62746908Y-82042225D01*
X62796711Y-82021647D01*
X63211490Y-81607591D01*
X63436244Y-81066323D01*
X63436755Y-80480248D01*
X63212947Y-79938589D01*
X62798891Y-79523810D01*
X62746908Y-79502225D01*
X62796711Y-79481647D01*
X63211490Y-79067591D01*
X63436244Y-78526323D01*
X63436755Y-77940248D01*
X63212947Y-77398589D01*
X62798891Y-76983810D01*
X62746908Y-76962225D01*
X62796711Y-76941647D01*
X63211490Y-76527591D01*
X63436244Y-75986323D01*
X63436755Y-75400248D01*
X63395824Y-75301186D01*
X66133979Y-72563031D01*
X66133979Y-89940065D01*
X65974468Y-90005973D01*
X65699140Y-90280821D01*
X65549950Y-90640110D01*
X65549611Y-91029143D01*
X65698173Y-91388692D01*
X65973021Y-91664020D01*
X66332310Y-91813210D01*
X66721343Y-91813549D01*
X67080892Y-91664987D01*
X67233811Y-91512335D01*
X67233811Y-92531451D01*
X66965068Y-92642493D01*
X66689740Y-92917341D01*
X66540550Y-93276630D01*
X66540211Y-93665663D01*
X66688773Y-94025212D01*
X66963621Y-94300540D01*
X67322910Y-94449730D01*
X67711943Y-94450069D01*
X68071492Y-94301507D01*
X68255955Y-94117366D01*
X68333653Y-94305411D01*
X68747709Y-94720190D01*
X68799692Y-94741775D01*
X68749889Y-94762353D01*
X68335110Y-95176409D01*
X68110356Y-95717677D01*
X68109845Y-96303752D01*
X68333653Y-96845411D01*
X68747709Y-97260190D01*
X68799692Y-97281775D01*
X68749889Y-97302353D01*
X68335110Y-97716409D01*
X68110356Y-98257677D01*
X68109845Y-98843752D01*
X68333653Y-99385411D01*
X68584402Y-99636598D01*
X68509783Y-99650638D01*
X68293659Y-99789710D01*
X68148669Y-100001910D01*
X68097660Y-100253800D01*
X68097660Y-101930200D01*
X68141938Y-102165517D01*
X68281010Y-102381641D01*
X68493210Y-102526631D01*
X68745100Y-102577640D01*
X70421500Y-102577640D01*
X70656817Y-102533362D01*
X70872941Y-102394290D01*
X71017931Y-102182090D01*
X71068940Y-101930200D01*
X71068940Y-100253800D01*
X71024662Y-100018483D01*
X70885590Y-99802359D01*
X70673390Y-99657369D01*
X70580155Y-99638488D01*
X70831490Y-99387591D01*
X71056244Y-98846323D01*
X71056755Y-98260248D01*
X71042173Y-98224956D01*
X81347797Y-98224956D01*
X81473239Y-98407700D01*
X83064600Y-98407700D01*
X83064600Y-97349700D01*
X83318600Y-97349700D01*
X83318600Y-98407700D01*
X84909961Y-98407700D01*
X85035403Y-98224956D01*
X85034998Y-98198554D01*
X84819324Y-97786582D01*
X84462413Y-97488504D01*
X84018600Y-97349700D01*
X83318600Y-97349700D01*
X83064600Y-97349700D01*
X82364600Y-97349700D01*
X81920787Y-97488504D01*
X81563876Y-97786582D01*
X81348202Y-98198554D01*
X81347797Y-98224956D01*
X71042173Y-98224956D01*
X70832947Y-97718589D01*
X70418891Y-97303810D01*
X70366908Y-97282225D01*
X70416711Y-97261647D01*
X70831490Y-96847591D01*
X70996521Y-96450150D01*
X74768710Y-96450150D01*
X74768710Y-97290199D01*
X74865383Y-97523588D01*
X75044011Y-97702217D01*
X75277400Y-97798890D01*
X76117450Y-97798890D01*
X76276200Y-97640140D01*
X76276200Y-96291400D01*
X76530200Y-96291400D01*
X76530200Y-97640140D01*
X76688950Y-97798890D01*
X77529000Y-97798890D01*
X77762389Y-97702217D01*
X77941017Y-97523588D01*
X78037690Y-97290199D01*
X78037690Y-96450150D01*
X77878940Y-96291400D01*
X76530200Y-96291400D01*
X76276200Y-96291400D01*
X74927460Y-96291400D01*
X74768710Y-96450150D01*
X70996521Y-96450150D01*
X71056244Y-96306323D01*
X71056755Y-95720248D01*
X70832947Y-95178589D01*
X70418891Y-94763810D01*
X70366908Y-94742225D01*
X70416711Y-94721647D01*
X70831490Y-94307591D01*
X71056244Y-93766323D01*
X71056755Y-93180248D01*
X70832947Y-92638589D01*
X70418891Y-92223810D01*
X70366908Y-92202225D01*
X70416711Y-92181647D01*
X70831490Y-91767591D01*
X71056244Y-91226323D01*
X71056755Y-90640248D01*
X70832947Y-90098589D01*
X70418891Y-89683810D01*
X70366908Y-89662225D01*
X70416711Y-89641647D01*
X70831490Y-89227591D01*
X71056244Y-88686323D01*
X71056755Y-88100248D01*
X70976057Y-87904943D01*
X71173171Y-87904943D01*
X71321733Y-88264492D01*
X71419720Y-88362650D01*
X71419720Y-90417641D01*
X71327780Y-90509421D01*
X71178590Y-90868710D01*
X71178251Y-91257743D01*
X71326813Y-91617292D01*
X71601661Y-91892620D01*
X71960950Y-92041810D01*
X72349983Y-92042149D01*
X72709532Y-91893587D01*
X72984860Y-91618739D01*
X73134050Y-91259450D01*
X73134230Y-91052378D01*
X74768710Y-91052378D01*
X74768710Y-91116422D01*
X74893128Y-91741914D01*
X75247441Y-92272181D01*
X75370490Y-92354400D01*
X75247441Y-92436619D01*
X74893128Y-92966886D01*
X74768710Y-93592378D01*
X74768710Y-93656422D01*
X74893128Y-94281914D01*
X75106213Y-94600818D01*
X75044011Y-94626583D01*
X74865383Y-94805212D01*
X74768710Y-95038601D01*
X74768710Y-95878650D01*
X74927460Y-96037400D01*
X76276200Y-96037400D01*
X76276200Y-96017400D01*
X76530200Y-96017400D01*
X76530200Y-96037400D01*
X77878940Y-96037400D01*
X78037690Y-95878650D01*
X78037690Y-95038601D01*
X77941017Y-94805212D01*
X77762389Y-94626583D01*
X77700187Y-94600818D01*
X77913272Y-94281914D01*
X78037690Y-93656422D01*
X78037690Y-93592378D01*
X77913272Y-92966886D01*
X77558959Y-92436619D01*
X77435910Y-92354400D01*
X77558959Y-92272181D01*
X77913272Y-91741914D01*
X78037690Y-91116422D01*
X78037690Y-91052378D01*
X77913272Y-90426886D01*
X77558959Y-89896619D01*
X77028692Y-89542306D01*
X76403200Y-89417888D01*
X75777708Y-89542306D01*
X75247441Y-89896619D01*
X74893128Y-90426886D01*
X74768710Y-91052378D01*
X73134230Y-91052378D01*
X73134389Y-90870417D01*
X72985827Y-90510868D01*
X72892920Y-90417799D01*
X72892920Y-88352648D01*
X72979780Y-88265939D01*
X73128970Y-87906650D01*
X73129309Y-87517617D01*
X72980747Y-87158068D01*
X72705899Y-86882740D01*
X72346610Y-86733550D01*
X71957577Y-86733211D01*
X71598028Y-86881773D01*
X71322700Y-87156621D01*
X71173510Y-87515910D01*
X71173171Y-87904943D01*
X70976057Y-87904943D01*
X70832947Y-87558589D01*
X70418891Y-87143810D01*
X70366908Y-87122225D01*
X70416711Y-87101647D01*
X70831490Y-86687591D01*
X71056244Y-86146323D01*
X71056755Y-85560248D01*
X70832947Y-85018589D01*
X70418891Y-84603810D01*
X70365305Y-84581559D01*
X70439107Y-84347415D01*
X70553855Y-84462163D01*
X70558772Y-84457246D01*
X70559733Y-84459572D01*
X70834581Y-84734900D01*
X71193870Y-84884090D01*
X71582903Y-84884429D01*
X71942452Y-84735867D01*
X72217780Y-84461019D01*
X72366970Y-84101730D01*
X72367309Y-83712697D01*
X72218747Y-83353148D01*
X72039480Y-83173568D01*
X72039480Y-82285840D01*
X74659397Y-82285840D01*
X74783815Y-82911332D01*
X75138128Y-83441599D01*
X75668395Y-83795912D01*
X76293887Y-83920330D01*
X76868113Y-83920330D01*
X77493605Y-83795912D01*
X78023872Y-83441599D01*
X78378185Y-82911332D01*
X78502603Y-82285840D01*
X78378185Y-81660348D01*
X78023872Y-81130081D01*
X77493605Y-80775768D01*
X76868113Y-80651350D01*
X76293887Y-80651350D01*
X75668395Y-80775768D01*
X75138128Y-81130081D01*
X74783815Y-81660348D01*
X74659397Y-82285840D01*
X72039480Y-82285840D01*
X72039480Y-77403960D01*
X74659397Y-77403960D01*
X74783815Y-78029452D01*
X75138128Y-78559719D01*
X75668395Y-78914032D01*
X76293887Y-79038450D01*
X76868113Y-79038450D01*
X77493605Y-78914032D01*
X78023872Y-78559719D01*
X78378185Y-78029452D01*
X78502603Y-77403960D01*
X78378185Y-76778468D01*
X78023872Y-76248201D01*
X77493605Y-75893888D01*
X76868113Y-75769470D01*
X76293887Y-75769470D01*
X75668395Y-75893888D01*
X75138128Y-76248201D01*
X74783815Y-76778468D01*
X74659397Y-77403960D01*
X72039480Y-77403960D01*
X72039480Y-71873119D01*
X72131420Y-71781339D01*
X72280610Y-71422050D01*
X72280949Y-71033017D01*
X72132387Y-70673468D01*
X71857539Y-70398140D01*
X71498250Y-70248950D01*
X71109217Y-70248611D01*
X71039122Y-70277573D01*
X70832947Y-69778589D01*
X70418891Y-69363810D01*
X70366908Y-69342225D01*
X70416711Y-69321647D01*
X70654582Y-69084190D01*
X74467720Y-69084190D01*
X74467720Y-69940749D01*
X74564393Y-70174138D01*
X74743021Y-70352767D01*
X74976410Y-70449440D01*
X75680570Y-70449440D01*
X75839320Y-70290690D01*
X75839320Y-68925440D01*
X74626470Y-68925440D01*
X74467720Y-69084190D01*
X70654582Y-69084190D01*
X70831490Y-68907591D01*
X71056244Y-68366323D01*
X71056755Y-67780248D01*
X71005472Y-67656131D01*
X74467720Y-67656131D01*
X74467720Y-68512690D01*
X74626470Y-68671440D01*
X75839320Y-68671440D01*
X75839320Y-67306190D01*
X76093320Y-67306190D01*
X76093320Y-68671440D01*
X76113320Y-68671440D01*
X76113320Y-68925440D01*
X76093320Y-68925440D01*
X76093320Y-70290690D01*
X76252070Y-70449440D01*
X76956230Y-70449440D01*
X77189619Y-70352767D01*
X77368247Y-70174138D01*
X77431820Y-70020660D01*
X77446650Y-70042855D01*
X77932831Y-70367711D01*
X78506320Y-70481785D01*
X79079809Y-70367711D01*
X79565990Y-70042855D01*
X79776320Y-69728074D01*
X79986650Y-70042855D01*
X80444780Y-70348968D01*
X80177140Y-70616141D01*
X80027950Y-70975430D01*
X80027611Y-71364463D01*
X80176173Y-71724012D01*
X80451021Y-71999340D01*
X80810310Y-72148530D01*
X81199343Y-72148869D01*
X81558892Y-72000307D01*
X81651961Y-71907400D01*
X119201890Y-71907400D01*
X121749764Y-74455274D01*
X121749651Y-74585183D01*
X121898213Y-74944732D01*
X122173061Y-75220060D01*
X122532350Y-75369250D01*
X122921383Y-75369589D01*
X123280932Y-75221027D01*
X123556260Y-74946179D01*
X123705450Y-74586890D01*
X123705789Y-74197857D01*
X123557227Y-73838308D01*
X123282379Y-73562980D01*
X122923090Y-73413790D01*
X122791585Y-73413675D01*
X120027855Y-70649945D01*
X119788885Y-70490270D01*
X119507000Y-70434200D01*
X114193322Y-70434200D01*
X114193322Y-70284658D01*
X114425346Y-70405798D01*
X114441111Y-70403149D01*
X114968356Y-70149172D01*
X115358274Y-69712760D01*
X115551504Y-69160353D01*
X115407244Y-68925440D01*
X114193320Y-68925440D01*
X114193320Y-68945440D01*
X113939320Y-68945440D01*
X113939320Y-68925440D01*
X113919320Y-68925440D01*
X113919320Y-68671440D01*
X113939320Y-68671440D01*
X113939320Y-67312223D01*
X114193320Y-67312223D01*
X114193320Y-68671440D01*
X115407244Y-68671440D01*
X115551504Y-68436527D01*
X115358274Y-67884120D01*
X114968356Y-67447708D01*
X114441111Y-67193731D01*
X114425346Y-67191082D01*
X114193320Y-67312223D01*
X113939320Y-67312223D01*
X113707294Y-67191082D01*
X113691529Y-67193731D01*
X113164284Y-67447708D01*
X112792781Y-67863509D01*
X112585990Y-67554025D01*
X112099809Y-67229169D01*
X111526320Y-67115095D01*
X110952831Y-67229169D01*
X110466650Y-67554025D01*
X110256320Y-67868806D01*
X110045990Y-67554025D01*
X109559809Y-67229169D01*
X108986320Y-67115095D01*
X108412831Y-67229169D01*
X107926650Y-67554025D01*
X107716320Y-67868806D01*
X107505990Y-67554025D01*
X107019809Y-67229169D01*
X106446320Y-67115095D01*
X105872831Y-67229169D01*
X105386650Y-67554025D01*
X105176320Y-67868806D01*
X104965990Y-67554025D01*
X104479809Y-67229169D01*
X103906320Y-67115095D01*
X103332831Y-67229169D01*
X102846650Y-67554025D01*
X102636320Y-67868806D01*
X102425990Y-67554025D01*
X101939809Y-67229169D01*
X101366320Y-67115095D01*
X100792831Y-67229169D01*
X100306650Y-67554025D01*
X100096320Y-67868806D01*
X99885990Y-67554025D01*
X99399809Y-67229169D01*
X98826320Y-67115095D01*
X98252831Y-67229169D01*
X97766650Y-67554025D01*
X97556320Y-67868806D01*
X97345990Y-67554025D01*
X96859809Y-67229169D01*
X96286320Y-67115095D01*
X95712831Y-67229169D01*
X95226650Y-67554025D01*
X95016320Y-67868806D01*
X94805990Y-67554025D01*
X94319809Y-67229169D01*
X93746320Y-67115095D01*
X93172831Y-67229169D01*
X92686650Y-67554025D01*
X92476320Y-67868806D01*
X92265990Y-67554025D01*
X91779809Y-67229169D01*
X91206320Y-67115095D01*
X90632831Y-67229169D01*
X90146650Y-67554025D01*
X89936320Y-67868806D01*
X89725990Y-67554025D01*
X89239809Y-67229169D01*
X88666320Y-67115095D01*
X88092831Y-67229169D01*
X87606650Y-67554025D01*
X87399859Y-67863509D01*
X87028356Y-67447708D01*
X86501111Y-67193731D01*
X86485346Y-67191082D01*
X86253320Y-67312223D01*
X86253320Y-68671440D01*
X86273320Y-68671440D01*
X86273320Y-68925440D01*
X86253320Y-68925440D01*
X86253320Y-68945440D01*
X85999320Y-68945440D01*
X85999320Y-68925440D01*
X85979320Y-68925440D01*
X85979320Y-68671440D01*
X85999320Y-68671440D01*
X85999320Y-67312223D01*
X85767294Y-67191082D01*
X85751529Y-67193731D01*
X85224284Y-67447708D01*
X84852781Y-67863509D01*
X84645990Y-67554025D01*
X84159809Y-67229169D01*
X83586320Y-67115095D01*
X83012831Y-67229169D01*
X82526650Y-67554025D01*
X82316320Y-67868806D01*
X82105990Y-67554025D01*
X81619809Y-67229169D01*
X81046320Y-67115095D01*
X80472831Y-67229169D01*
X79986650Y-67554025D01*
X79776320Y-67868806D01*
X79565990Y-67554025D01*
X79079809Y-67229169D01*
X78506320Y-67115095D01*
X77932831Y-67229169D01*
X77446650Y-67554025D01*
X77431820Y-67576220D01*
X77368247Y-67422742D01*
X77189619Y-67244113D01*
X76956230Y-67147440D01*
X76252070Y-67147440D01*
X76093320Y-67306190D01*
X75839320Y-67306190D01*
X75680570Y-67147440D01*
X74976410Y-67147440D01*
X74743021Y-67244113D01*
X74564393Y-67422742D01*
X74467720Y-67656131D01*
X71005472Y-67656131D01*
X70832947Y-67238589D01*
X70418891Y-66823810D01*
X69877623Y-66599056D01*
X69291548Y-66598545D01*
X68749889Y-66822353D01*
X68707011Y-66865156D01*
X68707011Y-66817251D01*
X68650941Y-66535366D01*
X68526700Y-66349427D01*
X68526829Y-66201937D01*
X68444729Y-66003240D01*
X140000920Y-66003240D01*
X140000920Y-112378701D01*
X139997919Y-113402040D01*
X100393311Y-113402040D01*
X100438031Y-113336590D01*
X100489040Y-113084700D01*
X100489040Y-111984700D01*
X100452272Y-111789295D01*
X106412116Y-111789295D01*
X106660506Y-112390443D01*
X107120037Y-112850778D01*
X107720752Y-113100216D01*
X108371195Y-113100784D01*
X108972343Y-112852394D01*
X109207115Y-112618032D01*
X111574473Y-112618032D01*
X111673136Y-112884887D01*
X112282861Y-113111408D01*
X112932860Y-113087356D01*
X113421664Y-112884887D01*
X113520327Y-112618032D01*
X112547400Y-111645105D01*
X111574473Y-112618032D01*
X109207115Y-112618032D01*
X109432678Y-112392863D01*
X109682116Y-111792148D01*
X109682632Y-111200961D01*
X110901492Y-111200961D01*
X110925544Y-111850960D01*
X111128013Y-112339764D01*
X111394868Y-112438427D01*
X112367795Y-111465500D01*
X112727005Y-111465500D01*
X113699932Y-112438427D01*
X113966787Y-112339764D01*
X114193308Y-111730039D01*
X114183471Y-111464187D01*
X122440552Y-111464187D01*
X122658557Y-111991800D01*
X123061877Y-112395824D01*
X123589109Y-112614750D01*
X124159987Y-112615248D01*
X124687600Y-112397243D01*
X125091624Y-111993923D01*
X125310550Y-111466691D01*
X125311048Y-110895813D01*
X125093043Y-110368200D01*
X124689723Y-109964176D01*
X124162491Y-109745250D01*
X123591613Y-109744752D01*
X123064000Y-109962757D01*
X122659976Y-110366077D01*
X122441050Y-110893309D01*
X122440552Y-111464187D01*
X114183471Y-111464187D01*
X114169256Y-111080040D01*
X113966787Y-110591236D01*
X113699932Y-110492573D01*
X112727005Y-111465500D01*
X112367795Y-111465500D01*
X111394868Y-110492573D01*
X111128013Y-110591236D01*
X110901492Y-111200961D01*
X109682632Y-111200961D01*
X109682684Y-111141705D01*
X109434294Y-110540557D01*
X109207103Y-110312968D01*
X111574473Y-110312968D01*
X112547400Y-111285895D01*
X113520327Y-110312968D01*
X113421664Y-110046113D01*
X112811939Y-109819592D01*
X112161940Y-109843644D01*
X111673136Y-110046113D01*
X111574473Y-110312968D01*
X109207103Y-110312968D01*
X108974763Y-110080222D01*
X108374048Y-109830784D01*
X107723605Y-109830216D01*
X107122457Y-110078606D01*
X106662122Y-110538137D01*
X106412684Y-111138852D01*
X106412116Y-111789295D01*
X100452272Y-111789295D01*
X100444762Y-111749383D01*
X100305690Y-111533259D01*
X100117985Y-111405006D01*
X100166451Y-111372622D01*
X100423326Y-110988180D01*
X100513529Y-110534700D01*
X100423326Y-110081220D01*
X100166451Y-109696778D01*
X99923883Y-109534700D01*
X100166451Y-109372622D01*
X100423326Y-108988180D01*
X100513529Y-108534700D01*
X100423326Y-108081220D01*
X100166451Y-107696778D01*
X99923883Y-107534700D01*
X100166451Y-107372622D01*
X100423326Y-106988180D01*
X100424159Y-106983991D01*
X122340535Y-106983991D01*
X122573732Y-107548371D01*
X123005157Y-107980551D01*
X123569130Y-108214733D01*
X124179791Y-108215265D01*
X124744171Y-107982068D01*
X125176351Y-107550643D01*
X125410533Y-106986670D01*
X125411065Y-106376009D01*
X125177868Y-105811629D01*
X124746443Y-105379449D01*
X124182470Y-105145267D01*
X123571809Y-105144735D01*
X123007429Y-105377932D01*
X122575249Y-105809357D01*
X122341067Y-106373330D01*
X122340535Y-106983991D01*
X100424159Y-106983991D01*
X100513529Y-106534700D01*
X100423326Y-106081220D01*
X100166451Y-105696778D01*
X99923883Y-105534700D01*
X100166451Y-105372622D01*
X100222128Y-105289295D01*
X106412116Y-105289295D01*
X106660506Y-105890443D01*
X107120037Y-106350778D01*
X107720752Y-106600216D01*
X108371195Y-106600784D01*
X108972343Y-106352394D01*
X109207115Y-106118032D01*
X111574473Y-106118032D01*
X111673136Y-106384887D01*
X112282861Y-106611408D01*
X112932860Y-106587356D01*
X113421664Y-106384887D01*
X113520327Y-106118032D01*
X112547400Y-105145105D01*
X111574473Y-106118032D01*
X109207115Y-106118032D01*
X109432678Y-105892863D01*
X109682116Y-105292148D01*
X109682632Y-104700961D01*
X110901492Y-104700961D01*
X110925544Y-105350960D01*
X111128013Y-105839764D01*
X111394868Y-105938427D01*
X112367795Y-104965500D01*
X112727005Y-104965500D01*
X113699932Y-105938427D01*
X113966787Y-105839764D01*
X114193308Y-105230039D01*
X114169256Y-104580040D01*
X113966787Y-104091236D01*
X113699932Y-103992573D01*
X112727005Y-104965500D01*
X112367795Y-104965500D01*
X111394868Y-103992573D01*
X111128013Y-104091236D01*
X110901492Y-104700961D01*
X109682632Y-104700961D01*
X109682684Y-104641705D01*
X109434294Y-104040557D01*
X109207103Y-103812968D01*
X111574473Y-103812968D01*
X112547400Y-104785895D01*
X113520327Y-103812968D01*
X113421664Y-103546113D01*
X112811939Y-103319592D01*
X112161940Y-103343644D01*
X111673136Y-103546113D01*
X111574473Y-103812968D01*
X109207103Y-103812968D01*
X108974763Y-103580222D01*
X108374048Y-103330784D01*
X107723605Y-103330216D01*
X107122457Y-103578606D01*
X106662122Y-104038137D01*
X106412684Y-104638852D01*
X106412116Y-105289295D01*
X100222128Y-105289295D01*
X100423326Y-104988180D01*
X100513529Y-104534700D01*
X100423326Y-104081220D01*
X100166451Y-103696778D01*
X99923883Y-103534700D01*
X100166451Y-103372622D01*
X100423326Y-102988180D01*
X100513529Y-102534700D01*
X100423326Y-102081220D01*
X100166451Y-101696778D01*
X99923883Y-101534700D01*
X100166451Y-101372622D01*
X100423326Y-100988180D01*
X100513529Y-100534700D01*
X100423326Y-100081220D01*
X100166451Y-99696778D01*
X99923883Y-99534700D01*
X100166451Y-99372622D01*
X100423326Y-98988180D01*
X100513529Y-98534700D01*
X100423326Y-98081220D01*
X100166451Y-97696778D01*
X99782009Y-97439903D01*
X99328529Y-97349700D01*
X97854671Y-97349700D01*
X97401191Y-97439903D01*
X97016749Y-97696778D01*
X96759874Y-98081220D01*
X96669671Y-98534700D01*
X96759874Y-98988180D01*
X97016749Y-99372622D01*
X97259317Y-99534700D01*
X97016749Y-99696778D01*
X96759874Y-100081220D01*
X96669671Y-100534700D01*
X96759874Y-100988180D01*
X97016749Y-101372622D01*
X97259317Y-101534700D01*
X97016749Y-101696778D01*
X96759874Y-102081220D01*
X96669671Y-102534700D01*
X96759874Y-102988180D01*
X97016749Y-103372622D01*
X97259317Y-103534700D01*
X97016749Y-103696778D01*
X96759874Y-104081220D01*
X96669671Y-104534700D01*
X96759874Y-104988180D01*
X97016749Y-105372622D01*
X97259317Y-105534700D01*
X97016749Y-105696778D01*
X96759874Y-106081220D01*
X96669671Y-106534700D01*
X96759874Y-106988180D01*
X97016749Y-107372622D01*
X97259317Y-107534700D01*
X97016749Y-107696778D01*
X96759874Y-108081220D01*
X96669671Y-108534700D01*
X96759874Y-108988180D01*
X97016749Y-109372622D01*
X97259317Y-109534700D01*
X97016749Y-109696778D01*
X96759874Y-110081220D01*
X96669671Y-110534700D01*
X96759874Y-110988180D01*
X97016749Y-111372622D01*
X97067471Y-111406513D01*
X96890159Y-111520610D01*
X96745169Y-111732810D01*
X96694160Y-111984700D01*
X96694160Y-113084700D01*
X96738438Y-113320017D01*
X96791218Y-113402040D01*
X84722424Y-113402040D01*
X84766451Y-113372622D01*
X85023326Y-112988180D01*
X85113529Y-112534700D01*
X85023326Y-112081220D01*
X84766451Y-111696778D01*
X84523883Y-111534700D01*
X84766451Y-111372622D01*
X85023326Y-110988180D01*
X85113529Y-110534700D01*
X85023326Y-110081220D01*
X84766451Y-109696778D01*
X84523883Y-109534700D01*
X84766451Y-109372622D01*
X85023326Y-108988180D01*
X85113529Y-108534700D01*
X85023326Y-108081220D01*
X84766451Y-107696778D01*
X84523883Y-107534700D01*
X84766451Y-107372622D01*
X85023326Y-106988180D01*
X85113529Y-106534700D01*
X85023326Y-106081220D01*
X84766451Y-105696778D01*
X84523883Y-105534700D01*
X84766451Y-105372622D01*
X85023326Y-104988180D01*
X85113529Y-104534700D01*
X85023326Y-104081220D01*
X84766451Y-103696778D01*
X84523883Y-103534700D01*
X84766451Y-103372622D01*
X85023326Y-102988180D01*
X85113529Y-102534700D01*
X85023326Y-102081220D01*
X84766451Y-101696778D01*
X84573883Y-101568109D01*
X84866451Y-101372622D01*
X85123326Y-100988180D01*
X85213529Y-100534700D01*
X85123326Y-100081220D01*
X84866451Y-99696778D01*
X84564909Y-99495295D01*
X84819324Y-99282818D01*
X85034998Y-98870846D01*
X85035403Y-98844444D01*
X84909961Y-98661700D01*
X83318600Y-98661700D01*
X83318600Y-98681700D01*
X83064600Y-98681700D01*
X83064600Y-98661700D01*
X81473239Y-98661700D01*
X81347797Y-98844444D01*
X81348202Y-98870846D01*
X81563876Y-99282818D01*
X81907183Y-99569535D01*
X81716749Y-99696778D01*
X81459874Y-100081220D01*
X81369671Y-100534700D01*
X81459874Y-100988180D01*
X81716749Y-101372622D01*
X81909317Y-101501291D01*
X81616749Y-101696778D01*
X81359874Y-102081220D01*
X81269671Y-102534700D01*
X81359874Y-102988180D01*
X81616749Y-103372622D01*
X81859317Y-103534700D01*
X81616749Y-103696778D01*
X81359874Y-104081220D01*
X81269671Y-104534700D01*
X81359874Y-104988180D01*
X81616749Y-105372622D01*
X81859317Y-105534700D01*
X81616749Y-105696778D01*
X81359874Y-106081220D01*
X81269671Y-106534700D01*
X81359874Y-106988180D01*
X81616749Y-107372622D01*
X81859317Y-107534700D01*
X81616749Y-107696778D01*
X81359874Y-108081220D01*
X81269671Y-108534700D01*
X81359874Y-108988180D01*
X81616749Y-109372622D01*
X81859317Y-109534700D01*
X81616749Y-109696778D01*
X81359874Y-110081220D01*
X81269671Y-110534700D01*
X81359874Y-110988180D01*
X81616749Y-111372622D01*
X81859317Y-111534700D01*
X81616749Y-111696778D01*
X81359874Y-112081220D01*
X81269671Y-112534700D01*
X81359874Y-112988180D01*
X81616749Y-113372622D01*
X81660776Y-113402040D01*
X44098280Y-113402040D01*
X44098280Y-112446832D01*
X62084973Y-112446832D01*
X62183636Y-112713687D01*
X62793361Y-112940208D01*
X63443360Y-112916156D01*
X63932164Y-112713687D01*
X64030827Y-112446832D01*
X68584973Y-112446832D01*
X68683636Y-112713687D01*
X69293361Y-112940208D01*
X69943360Y-112916156D01*
X70432164Y-112713687D01*
X70530827Y-112446832D01*
X69557900Y-111473905D01*
X68584973Y-112446832D01*
X64030827Y-112446832D01*
X63057900Y-111473905D01*
X62084973Y-112446832D01*
X44098280Y-112446832D01*
X44098280Y-111029761D01*
X61411992Y-111029761D01*
X61436044Y-111679760D01*
X61638513Y-112168564D01*
X61905368Y-112267227D01*
X62878295Y-111294300D01*
X63237505Y-111294300D01*
X64210432Y-112267227D01*
X64477287Y-112168564D01*
X64703808Y-111558839D01*
X64684231Y-111029761D01*
X67911992Y-111029761D01*
X67936044Y-111679760D01*
X68138513Y-112168564D01*
X68405368Y-112267227D01*
X69378295Y-111294300D01*
X69737505Y-111294300D01*
X70710432Y-112267227D01*
X70977287Y-112168564D01*
X71203808Y-111558839D01*
X71179756Y-110908840D01*
X70977287Y-110420036D01*
X70710432Y-110321373D01*
X69737505Y-111294300D01*
X69378295Y-111294300D01*
X68405368Y-110321373D01*
X68138513Y-110420036D01*
X67911992Y-111029761D01*
X64684231Y-111029761D01*
X64679756Y-110908840D01*
X64477287Y-110420036D01*
X64210432Y-110321373D01*
X63237505Y-111294300D01*
X62878295Y-111294300D01*
X61905368Y-110321373D01*
X61638513Y-110420036D01*
X61411992Y-111029761D01*
X44098280Y-111029761D01*
X44098280Y-110141768D01*
X62084973Y-110141768D01*
X63057900Y-111114695D01*
X64030827Y-110141768D01*
X68584973Y-110141768D01*
X69557900Y-111114695D01*
X70530827Y-110141768D01*
X70432164Y-109874913D01*
X69822439Y-109648392D01*
X69172440Y-109672444D01*
X68683636Y-109874913D01*
X68584973Y-110141768D01*
X64030827Y-110141768D01*
X63932164Y-109874913D01*
X63322439Y-109648392D01*
X62672440Y-109672444D01*
X62183636Y-109874913D01*
X62084973Y-110141768D01*
X44098280Y-110141768D01*
X44098280Y-107118095D01*
X61422616Y-107118095D01*
X61671006Y-107719243D01*
X62130537Y-108179578D01*
X62731252Y-108429016D01*
X63381695Y-108429584D01*
X63982843Y-108181194D01*
X64443178Y-107721663D01*
X64692616Y-107120948D01*
X64692618Y-107118095D01*
X67922616Y-107118095D01*
X68171006Y-107719243D01*
X68630537Y-108179578D01*
X69231252Y-108429016D01*
X69881695Y-108429584D01*
X70482843Y-108181194D01*
X70943178Y-107721663D01*
X71192616Y-107120948D01*
X71193184Y-106470505D01*
X71157973Y-106385286D01*
X72808869Y-106385286D01*
X73011454Y-106875580D01*
X73386247Y-107251027D01*
X73876187Y-107454468D01*
X74406686Y-107454931D01*
X74896980Y-107252346D01*
X75094281Y-107055388D01*
X75928017Y-107055388D01*
X75989671Y-107291000D01*
X76490080Y-107467127D01*
X77019799Y-107438348D01*
X77375529Y-107291000D01*
X77437183Y-107055388D01*
X76682600Y-106300805D01*
X75928017Y-107055388D01*
X75094281Y-107055388D01*
X75272427Y-106877553D01*
X75405914Y-106556082D01*
X75512800Y-106814129D01*
X75748412Y-106875783D01*
X76502995Y-106121200D01*
X76862205Y-106121200D01*
X77616788Y-106875783D01*
X77852400Y-106814129D01*
X77876660Y-106745202D01*
X77876660Y-106819700D01*
X77920938Y-107055017D01*
X78060010Y-107271141D01*
X78272210Y-107416131D01*
X78524100Y-107467140D01*
X79921100Y-107467140D01*
X80156417Y-107422862D01*
X80372541Y-107283790D01*
X80517531Y-107071590D01*
X80568540Y-106819700D01*
X80568540Y-105422700D01*
X80524262Y-105187383D01*
X80385190Y-104971259D01*
X80172990Y-104826269D01*
X79921100Y-104775260D01*
X78524100Y-104775260D01*
X78288783Y-104819538D01*
X78072659Y-104958610D01*
X77927669Y-105170810D01*
X77876660Y-105422700D01*
X77876660Y-105486840D01*
X77852400Y-105428271D01*
X77616788Y-105366617D01*
X76862205Y-106121200D01*
X76502995Y-106121200D01*
X75748412Y-105366617D01*
X75512800Y-105428271D01*
X75414517Y-105707512D01*
X75273746Y-105366820D01*
X75094252Y-105187012D01*
X75928017Y-105187012D01*
X76682600Y-105941595D01*
X77437183Y-105187012D01*
X77375529Y-104951400D01*
X76875120Y-104775273D01*
X76345401Y-104804052D01*
X75989671Y-104951400D01*
X75928017Y-105187012D01*
X75094252Y-105187012D01*
X74898953Y-104991373D01*
X74409013Y-104787932D01*
X73878514Y-104787469D01*
X73388220Y-104990054D01*
X73012773Y-105364847D01*
X72809332Y-105854787D01*
X72808869Y-106385286D01*
X71157973Y-106385286D01*
X70944794Y-105869357D01*
X70485263Y-105409022D01*
X69884548Y-105159584D01*
X69234105Y-105159016D01*
X68632957Y-105407406D01*
X68172622Y-105866937D01*
X67923184Y-106467652D01*
X67922616Y-107118095D01*
X64692618Y-107118095D01*
X64693184Y-106470505D01*
X64444794Y-105869357D01*
X63985263Y-105409022D01*
X63384548Y-105159584D01*
X62734105Y-105159016D01*
X62132957Y-105407406D01*
X61672622Y-105866937D01*
X61423184Y-106467652D01*
X61422616Y-107118095D01*
X44098280Y-107118095D01*
X44098280Y-100067110D01*
X53839370Y-100067110D01*
X53839370Y-102066090D01*
X53883648Y-102301407D01*
X54022720Y-102517531D01*
X54234920Y-102662521D01*
X54486810Y-102713530D01*
X56485790Y-102713530D01*
X56721107Y-102669252D01*
X56937231Y-102530180D01*
X57082221Y-102317980D01*
X57133230Y-102066090D01*
X57133230Y-100067110D01*
X57088952Y-99831793D01*
X56949880Y-99615669D01*
X56783827Y-99502210D01*
X56996372Y-99184114D01*
X57120790Y-98558622D01*
X57120790Y-98494578D01*
X56996372Y-97869086D01*
X56642059Y-97338819D01*
X56111792Y-96984506D01*
X55486300Y-96860088D01*
X54860808Y-96984506D01*
X54330541Y-97338819D01*
X53976228Y-97869086D01*
X53851810Y-98494578D01*
X53851810Y-98558622D01*
X53976228Y-99184114D01*
X54189753Y-99503677D01*
X54035369Y-99603020D01*
X53890379Y-99815220D01*
X53839370Y-100067110D01*
X44098280Y-100067110D01*
X44098280Y-83947623D01*
X45199131Y-83947623D01*
X45347693Y-84307172D01*
X45440600Y-84400241D01*
X45440600Y-94701360D01*
X45496670Y-94983245D01*
X45509188Y-95001979D01*
X45509011Y-95204903D01*
X45657573Y-95564452D01*
X45932421Y-95839780D01*
X46291710Y-95988970D01*
X46680743Y-95989309D01*
X47040292Y-95840747D01*
X47315620Y-95565899D01*
X47464810Y-95206610D01*
X47465149Y-94817577D01*
X47316587Y-94458028D01*
X47041739Y-94182700D01*
X46913800Y-94129575D01*
X46913800Y-89945210D01*
X53839370Y-89945210D01*
X53839370Y-91944190D01*
X53883648Y-92179507D01*
X54022720Y-92395631D01*
X54234920Y-92540621D01*
X54486810Y-92591630D01*
X56485790Y-92591630D01*
X56721107Y-92547352D01*
X56937231Y-92408280D01*
X57082221Y-92196080D01*
X57133230Y-91944190D01*
X57133230Y-89945210D01*
X57088952Y-89709893D01*
X56949880Y-89493769D01*
X56783827Y-89380310D01*
X56996372Y-89062214D01*
X57071652Y-88683752D01*
X60489845Y-88683752D01*
X60713653Y-89225411D01*
X61127709Y-89640190D01*
X61179692Y-89661775D01*
X61129889Y-89682353D01*
X60715110Y-90096409D01*
X60490356Y-90637677D01*
X60489845Y-91223752D01*
X60713653Y-91765411D01*
X61127709Y-92180190D01*
X61179692Y-92201775D01*
X61129889Y-92222353D01*
X60715110Y-92636409D01*
X60490356Y-93177677D01*
X60489845Y-93763752D01*
X60713653Y-94305411D01*
X61127709Y-94720190D01*
X61179692Y-94741775D01*
X61129889Y-94762353D01*
X60715110Y-95176409D01*
X60490356Y-95717677D01*
X60489845Y-96303752D01*
X60713653Y-96845411D01*
X61127709Y-97260190D01*
X61179692Y-97281775D01*
X61129889Y-97302353D01*
X60715110Y-97716409D01*
X60490356Y-98257677D01*
X60489845Y-98843752D01*
X60713653Y-99385411D01*
X61127709Y-99800190D01*
X61179692Y-99821775D01*
X61129889Y-99842353D01*
X60715110Y-100256409D01*
X60490356Y-100797677D01*
X60489845Y-101383752D01*
X60713653Y-101925411D01*
X61127709Y-102340190D01*
X61668977Y-102564944D01*
X62255052Y-102565455D01*
X62796711Y-102341647D01*
X63211490Y-101927591D01*
X63436244Y-101386323D01*
X63436755Y-100800248D01*
X63212947Y-100258589D01*
X62798891Y-99843810D01*
X62746908Y-99822225D01*
X62796711Y-99801647D01*
X63211490Y-99387591D01*
X63436244Y-98846323D01*
X63436755Y-98260248D01*
X63212947Y-97718589D01*
X62798891Y-97303810D01*
X62746908Y-97282225D01*
X62796711Y-97261647D01*
X63211490Y-96847591D01*
X63436244Y-96306323D01*
X63436755Y-95720248D01*
X63212947Y-95178589D01*
X62798891Y-94763810D01*
X62746908Y-94742225D01*
X62796711Y-94721647D01*
X63211490Y-94307591D01*
X63436244Y-93766323D01*
X63436755Y-93180248D01*
X63212947Y-92638589D01*
X62798891Y-92223810D01*
X62746908Y-92202225D01*
X62796711Y-92181647D01*
X63211490Y-91767591D01*
X63436244Y-91226323D01*
X63436755Y-90640248D01*
X63212947Y-90098589D01*
X62798891Y-89683810D01*
X62746908Y-89662225D01*
X62796711Y-89641647D01*
X63211490Y-89227591D01*
X63436244Y-88686323D01*
X63436755Y-88100248D01*
X63212947Y-87558589D01*
X62798891Y-87143810D01*
X62745305Y-87121559D01*
X62819108Y-86887413D01*
X61963300Y-86031605D01*
X61107492Y-86887413D01*
X61181171Y-87121164D01*
X61129889Y-87142353D01*
X60715110Y-87556409D01*
X60490356Y-88097677D01*
X60489845Y-88683752D01*
X57071652Y-88683752D01*
X57120790Y-88436722D01*
X57120790Y-88372678D01*
X56996372Y-87747186D01*
X56642059Y-87216919D01*
X56111792Y-86862606D01*
X55486300Y-86738188D01*
X54860808Y-86862606D01*
X54330541Y-87216919D01*
X53976228Y-87747186D01*
X53851810Y-88372678D01*
X53851810Y-88436722D01*
X53976228Y-89062214D01*
X54189753Y-89381777D01*
X54035369Y-89481120D01*
X53890379Y-89693320D01*
X53839370Y-89945210D01*
X46913800Y-89945210D01*
X46913800Y-85626097D01*
X60478323Y-85626097D01*
X60504911Y-86211569D01*
X60677810Y-86628983D01*
X60927887Y-86707808D01*
X61783695Y-85852000D01*
X62142905Y-85852000D01*
X62998713Y-86707808D01*
X63248790Y-86628983D01*
X63448277Y-86077903D01*
X63421689Y-85492431D01*
X63248790Y-85075017D01*
X62998713Y-84996192D01*
X62142905Y-85852000D01*
X61783695Y-85852000D01*
X60927887Y-84996192D01*
X60677810Y-85075017D01*
X60478323Y-85626097D01*
X46913800Y-85626097D01*
X46913800Y-84400399D01*
X47005740Y-84308619D01*
X47154930Y-83949330D01*
X47155269Y-83560297D01*
X47006707Y-83200748D01*
X46731859Y-82925420D01*
X46372570Y-82776230D01*
X45983537Y-82775891D01*
X45623988Y-82924453D01*
X45348660Y-83199301D01*
X45199470Y-83558590D01*
X45199131Y-83947623D01*
X44098280Y-83947623D01*
X44098280Y-82312510D01*
X53839370Y-82312510D01*
X53839370Y-84311490D01*
X53883648Y-84546807D01*
X54022720Y-84762931D01*
X54234920Y-84907921D01*
X54486810Y-84958930D01*
X56485790Y-84958930D01*
X56721107Y-84914652D01*
X56937231Y-84775580D01*
X57082221Y-84563380D01*
X57133230Y-84311490D01*
X57133230Y-82312510D01*
X57088952Y-82077193D01*
X56949880Y-81861069D01*
X56783827Y-81747610D01*
X56996372Y-81429514D01*
X57120790Y-80804022D01*
X57120790Y-80739978D01*
X56996372Y-80114486D01*
X56642059Y-79584219D01*
X56111792Y-79229906D01*
X55486300Y-79105488D01*
X54860808Y-79229906D01*
X54330541Y-79584219D01*
X53976228Y-80114486D01*
X53851810Y-80739978D01*
X53851810Y-80804022D01*
X53976228Y-81429514D01*
X54189753Y-81749077D01*
X54035369Y-81848420D01*
X53890379Y-82060620D01*
X53839370Y-82312510D01*
X44098280Y-82312510D01*
X44098280Y-66003240D01*
X66652827Y-66003240D01*
X66571030Y-66200230D01*
G36*
X69777048Y-83297858D02*
X69762905Y-83312000D01*
X69777048Y-83326143D01*
X69597443Y-83505748D01*
X69583300Y-83491605D01*
X69569158Y-83505748D01*
X69389553Y-83326143D01*
X69403695Y-83312000D01*
X69389553Y-83297858D01*
X69569158Y-83118253D01*
X69583300Y-83132395D01*
X69597443Y-83118253D01*
X69777048Y-83297858D01*
X69777048Y-83297858D01*
G37*
X69777048Y-83297858D02*
X69762905Y-83312000D01*
X69777048Y-83326143D01*
X69597443Y-83505748D01*
X69583300Y-83491605D01*
X69569158Y-83505748D01*
X69389553Y-83326143D01*
X69403695Y-83312000D01*
X69389553Y-83297858D01*
X69569158Y-83118253D01*
X69583300Y-83132395D01*
X69597443Y-83118253D01*
X69777048Y-83297858D01*
M02*
