G04 #@! TF.FileFunction,Soldermask,Top*
%FSLAX46Y46*%
G04 Gerber Fmt 4.6, Leading zero omitted, Abs format (unit mm)*
G04 Created by KiCad (PCBNEW 4.0.2+dfsg1-stable) date Seg 06 Nov 2017 17:19:15 BRT*
%MOMM*%
G01*
G04 APERTURE LIST*
%ADD10C,0.100000*%
%ADD11R,3.399740X2.000200*%
%ADD12R,2.400000X2.000000*%
%ADD13R,1.900000X1.700000*%
%ADD14R,2.400000X2.400000*%
%ADD15R,2.076400X2.076400*%
%ADD16C,2.076400*%
%ADD17O,2.398980X2.398980*%
%ADD18R,2.398980X2.398980*%
%ADD19R,1.700000X1.900000*%
%ADD20R,1.797000X1.797000*%
%ADD21C,1.797000*%
%ADD22C,2.400000*%
%ADD23R,4.200000X2.400000*%
%ADD24R,1.900000X2.400000*%
%ADD25R,2.900000X1.500000*%
%ADD26O,2.900000X1.500000*%
%ADD27O,1.500000X2.800000*%
%ADD28O,2.899360X2.398980*%
%ADD29R,2.127200X2.432000*%
%ADD30O,2.127200X2.432000*%
%ADD31R,1.620000X1.310000*%
%ADD32C,2.740000*%
%ADD33R,4.464000X4.464000*%
%ADD34C,4.464000*%
%ADD35R,2.432000X2.127200*%
%ADD36O,2.432000X2.127200*%
G04 APERTURE END LIST*
D10*
D11*
X106095800Y-97388680D03*
X110495080Y-97388680D03*
X125547120Y-93802200D03*
X129946400Y-93802200D03*
D12*
X85451700Y-82308700D03*
X81451700Y-82308700D03*
X85451700Y-77302360D03*
X81451700Y-77302360D03*
D11*
X125567440Y-86222840D03*
X129966720Y-86222840D03*
X110744000Y-86263480D03*
X106344720Y-86263480D03*
D13*
X89348300Y-91567000D03*
X86648300Y-91567000D03*
D14*
X129747700Y-99034600D03*
X125547700Y-99034600D03*
D15*
X69583300Y-101092000D03*
D16*
X69583300Y-98552000D03*
X69583300Y-96012000D03*
X69583300Y-93472000D03*
X69583300Y-90932000D03*
X69583300Y-88392000D03*
X69583300Y-85852000D03*
X69583300Y-83312000D03*
X69583300Y-80772000D03*
X69583300Y-78232000D03*
X69583300Y-75692000D03*
X69583300Y-73152000D03*
X69583300Y-70612000D03*
X69583300Y-68072000D03*
X61963300Y-68072000D03*
X61963300Y-70612000D03*
X61963300Y-73152000D03*
X61963300Y-75692000D03*
X61963300Y-78232000D03*
X61963300Y-80772000D03*
X61963300Y-83312000D03*
X61963300Y-85852000D03*
X61963300Y-88392000D03*
X61963300Y-90932000D03*
X61963300Y-93472000D03*
X61963300Y-96012000D03*
X61963300Y-98552000D03*
X61963300Y-101092000D03*
D17*
X55486300Y-88404700D03*
D18*
X55486300Y-90944700D03*
D17*
X55486300Y-98526600D03*
D18*
X55486300Y-101066600D03*
D17*
X76403200Y-91084400D03*
D18*
X76403200Y-96164400D03*
D17*
X76403200Y-93624400D03*
D19*
X102920800Y-111713000D03*
X102920800Y-109013000D03*
D13*
X94720400Y-91567000D03*
X92020400Y-91567000D03*
D19*
X102905560Y-105733840D03*
X102905560Y-103033840D03*
D13*
X79146400Y-100520500D03*
X76446400Y-100520500D03*
X76462900Y-103009700D03*
X79162900Y-103009700D03*
D19*
X50609500Y-88290400D03*
X50609500Y-85590400D03*
D13*
X56219100Y-106794300D03*
X58919100Y-106794300D03*
D19*
X50659500Y-90563700D03*
X50659500Y-93263700D03*
X82219800Y-93733600D03*
X82219800Y-91033600D03*
X50609500Y-98559600D03*
X50609500Y-95859600D03*
X50674800Y-101028500D03*
X50674800Y-103728500D03*
D20*
X79222600Y-106121200D03*
D21*
X76682600Y-106121200D03*
X74142600Y-106121200D03*
D22*
X108047400Y-104965500D03*
X112547400Y-104965500D03*
X108047400Y-111465500D03*
X112547400Y-111465500D03*
X63057900Y-111294300D03*
X63057900Y-106794300D03*
X69557900Y-111294300D03*
X69557900Y-106794300D03*
D23*
X117897880Y-92714280D03*
D24*
X117897880Y-99014280D03*
X120197880Y-99014280D03*
X115597880Y-99014280D03*
D25*
X98591600Y-112534700D03*
D26*
X98591600Y-110534700D03*
X98591600Y-108534700D03*
X98591600Y-106534700D03*
X98591600Y-104534700D03*
X98591600Y-102534700D03*
X98591600Y-100534700D03*
X98591600Y-98534700D03*
X83191600Y-98534700D03*
X83291600Y-100534700D03*
X83191600Y-102534700D03*
X83191600Y-104534700D03*
X83191600Y-106534700D03*
X83191600Y-108534700D03*
X83191600Y-110534700D03*
X83191600Y-112534700D03*
D27*
X95901600Y-96784700D03*
X93901600Y-96784700D03*
X91901600Y-96784700D03*
X89901600Y-96784700D03*
X87901600Y-96784700D03*
X85901600Y-96784700D03*
D23*
X117901720Y-79974040D03*
D24*
X117901720Y-86274040D03*
X120201720Y-86274040D03*
X115601720Y-86274040D03*
D28*
X76581000Y-82285840D03*
X76581000Y-77403960D03*
D29*
X75966320Y-68798440D03*
D30*
X78506320Y-68798440D03*
X81046320Y-68798440D03*
X83586320Y-68798440D03*
X86126320Y-68798440D03*
X88666320Y-68798440D03*
X91206320Y-68798440D03*
X93746320Y-68798440D03*
X96286320Y-68798440D03*
X98826320Y-68798440D03*
X101366320Y-68798440D03*
X103906320Y-68798440D03*
X106446320Y-68798440D03*
X108986320Y-68798440D03*
X111526320Y-68798440D03*
X114066320Y-68798440D03*
D17*
X55486300Y-80772000D03*
D18*
X55486300Y-83312000D03*
D31*
X46929040Y-84141560D03*
X46929040Y-87411560D03*
X47035720Y-89810840D03*
X47035720Y-93080840D03*
X46984920Y-95221040D03*
X46984920Y-98491040D03*
X46984920Y-100783640D03*
X46984920Y-104053640D03*
D32*
X138008360Y-78884800D03*
X123008360Y-73884800D03*
X138008360Y-68884800D03*
D33*
X123880880Y-104602280D03*
D34*
X123880880Y-110571280D03*
X128579880Y-107650280D03*
D12*
X75099160Y-111079280D03*
X79099160Y-111079280D03*
D35*
X135194040Y-111287560D03*
D36*
X135194040Y-108747560D03*
X135194040Y-106207560D03*
X135194040Y-103667560D03*
X135194040Y-101127560D03*
X135194040Y-98587560D03*
D20*
X94660720Y-85791040D03*
D21*
X97200720Y-85791040D03*
X99740720Y-85791040D03*
M02*
